<?xml version="1.0" standalone="no"?>
<!DOCTYPE svg PUBLIC "-//W3C//DTD SVG 1.1//EN" "http://www.w3.org/Graphics/SVG/1.1/DTD/svg11.dtd" >
<svg xmlns="http://www.w3.org/2000/svg">
<metadata>Generated by IcoMoon</metadata>
<defs>
<font id="app" horiz-adv-x="1024">
<font-face units-per-em="1024" ascent="960" descent="-64" />
<missing-glyph horiz-adv-x="1024" />
<glyph unicode="&#x20;" horiz-adv-x="512" d="" />
<glyph unicode="&#xe900;" glyph-name="arrow-left" d="M1023.095 16.885c-0.647-11.426-10.046-20.308-21.321-20.308-0.216 0-0.453 0-0.668 0.022-11.598 0.366-20.76 9.938-20.717 21.601-0.022 13.754-6.64 332.832-505.446 343.762v-214.436c0-8.386-9.658-16.298-17.225-19.812-2.867-1.337-5.907-1.983-8.968-1.983-4.98 0-9.895 1.746-13.84 5.131l-427.428 365.881c-4.786 4.096-7.524 10.089-7.524 16.406s2.738 12.288 7.524 16.384l427.428 365.902c6.36 5.433 15.285 6.661 22.808 3.126 7.567-3.514 17.225-9.679 17.225-18.066v-216.463c70.128-1.38 259.535-18.777 397.894-158.192 111.713-112.532 162.266-277.041 150.259-488.955zM842.892 475.141c-155.389 156.812-390.478 145.753-392.914 145.645-0.194-0.022-0.388 0.086-0.582 0.086s-0.41-0.108-0.604-0.108c-0.819 0-1.38 0.41-2.134 0.517-10.068 1.099-18.583 9.119-19.187 19.79-0.302 5.195 1.509 9.895 4.355 13.797v182.509l-377.5-324.231 377.5-322.506v180.914c-2.587 3.557-4.398 7.718-4.398 12.439 0 11.9 9.572 21.536 21.364 21.536 210.362 0 367.799-51.372 467.936-152.651 25.611-25.913 45.034-52.709 59.802-78.579-14.853 125.251-59.564 226.056-133.637 300.84z" />
<glyph unicode="&#xe901;" glyph-name="arrow-right" d="M1017.425 496.742l-427.45-365.902c-3.945-3.363-8.86-5.131-13.84-5.131-3.040 0-6.079 0.668-8.968 1.983-7.545 3.535-16.104 11.447-16.104 19.833v214.458c-499.906-10.477-506.524-330.030-506.546-343.848-0.022-11.641-9.227-21.191-20.782-21.515-0.194-0.022-0.41-0.022-0.604-0.022-11.296 0-20.696 8.86-21.342 20.264-11.986 211.936 38.567 376.444 150.259 488.998 139.199 140.234 329.9 157.028 399.015 158.213v216.42c0 8.386 8.558 14.573 16.104 18.109 7.567 3.492 16.449 2.307 22.808-3.147l427.45-365.902c4.764-4.096 7.524-10.089 7.524-16.406s-2.759-12.31-7.524-16.406zM594.179 837.379v-184.385c2.070-3.535 3.492-7.481 3.255-11.9-0.561-10.434-8.753-18.152-18.54-19.661-0.97-0.172-1.725-0.668-2.803-0.668-0.194 0-0.388 0.129-0.582 0.129-0.216 0-0.388-0.108-0.604-0.086-2.285 0.086-237.568 11.102-392.893-145.667-74.073-74.763-118.806-175.589-133.659-300.84 14.767 25.848 34.212 52.666 59.802 78.579 100.136 101.279 257.574 152.651 467.936 152.651 11.814 0 21.385-9.636 21.385-21.536 0-4.010-1.401-7.567-3.298-10.779v-182.574l376.401 322.506-376.401 324.231z" />
<glyph unicode="&#xe902;" glyph-name="bag" horiz-adv-x="853" d="M810.667-64h-768c-23.531 0-42.667 19.136-42.667 42.667v768c0 23.531 19.136 42.667 42.667 42.667h234.667v85.333c0 47.061 38.272 85.333 85.333 85.333h128c47.061 0 85.333-38.272 85.333-85.333v-85.333h234.667c23.531 0 42.667-19.136 42.667-42.667v-768c0-23.531-19.136-42.667-42.667-42.667zM533.333 874.667c0 23.531-19.136 42.667-42.667 42.667h-128c-23.531 0-42.667-19.136-42.667-42.667v-85.333h213.333v85.333zM576 746.667v-64c0-11.776-9.557-21.333-21.333-21.333s-21.333 9.557-21.333 21.333v64h-213.333v-64c0-11.776-9.557-21.333-21.333-21.333s-21.333 9.557-21.333 21.333v64h-234.667v-768h767.936l0.064 768h-234.667z" />
<glyph unicode="&#xe903;" glyph-name="basket-loaded" horiz-adv-x="1023" d="M1022.165 634.091l-129.003-448c-2.624-9.131-11.008-15.424-20.48-15.424h-428.224c0 0 0 0 0 0-0.021 0-0.021 0-0.021 0-2.645 0-5.163 0.597-7.552 1.536-0.832 0.299-1.493 0.768-2.261 1.173-1.493 0.789-2.88 1.685-4.16 2.795-0.704 0.64-1.323 1.301-1.941 2.027-1.045 1.216-1.92 2.517-2.667 3.968-0.469 0.896-0.917 1.728-1.259 2.688-0.192 0.491-0.512 0.875-0.661 1.365l-197.888 705.6c-3.755 13.355-19.797 25.515-33.643 25.515h-171.115c-11.797 0-21.312 9.536-21.312 21.333s9.515 21.333 21.312 21.333h171.115c32.96 0 65.749-24.875 74.688-56.64l67.883-242.027h86.827l239.104 208.107c8.021 6.955 19.925 6.955 27.968 0l239.083-208.107h73.728c6.699 0 12.992-3.157 17.024-8.491 4.032-5.355 5.291-12.309 3.456-18.752zM674.88 825.067l-188.096-163.733h376.192l-188.096 163.733zM346.923 618.667l113.685-405.333h396.011l116.736 405.333h-626.432zM500.821 85.333c41.131 0 74.603-33.493 74.603-74.667s-33.472-74.667-74.603-74.667c-41.131 0-74.603 33.493-74.603 74.667s33.472 74.667 74.603 74.667zM500.821-21.333c17.621 0 31.979 14.357 31.979 32s-14.357 32-31.979 32c-17.621 0-31.979-14.357-31.979-32s14.357-32 31.979-32zM820.523 85.333c41.131 0 74.581-33.493 74.581-74.667s-33.451-74.667-74.581-74.667c-41.131 0-74.603 33.493-74.603 74.667s33.472 74.667 74.603 74.667zM820.523-21.333c17.621 0 31.957 14.357 31.957 32s-14.336 32-31.957 32c-17.643 0-31.979-14.357-31.979-32s14.336-32 31.979-32z" />
<glyph unicode="&#xe904;" glyph-name="basket" horiz-adv-x="1023" d="M1022.165 634.091l-129.003-448c-2.624-9.131-10.987-15.424-20.48-15.424h-428.224c0 0 0 0 0 0s-0.021 0-0.021 0c-2.645 0-5.163 0.597-7.552 1.536-0.811 0.299-1.493 0.768-2.261 1.173-1.493 0.789-2.88 1.685-4.16 2.795-0.704 0.64-1.323 1.301-1.941 2.027-1.045 1.216-1.92 2.517-2.667 3.968-0.469 0.896-0.917 1.728-1.259 2.688-0.192 0.491-0.512 0.875-0.661 1.365l-197.888 705.6c-3.755 13.355-19.797 25.515-33.643 25.515h-171.115c-11.797 0-21.312 9.536-21.312 21.333s9.515 21.333 21.312 21.333h171.115c32.96 0 65.749-24.875 74.688-56.64l67.883-242.027h666.709c6.699 0 12.992-3.157 17.024-8.491 4.032-5.355 5.312-12.309 3.456-18.752zM346.944 618.667l113.664-405.333h396.011l116.736 405.333h-626.411zM500.821 85.333c41.131 0 74.603-33.493 74.603-74.667s-33.472-74.667-74.603-74.667c-41.131 0-74.603 33.493-74.603 74.667s33.472 74.667 74.603 74.667zM500.821-21.333c17.621 0 31.979 14.357 31.979 32s-14.357 32-31.979 32c-17.621 0-31.957-14.357-31.957-32s14.336-32 31.957-32zM820.523 85.333c41.131 0 74.581-33.493 74.581-74.667s-33.451-74.667-74.581-74.667c-41.131 0-74.603 33.493-74.603 74.667s33.472 74.667 74.603 74.667zM820.523-21.333c17.621 0 31.957 14.357 31.957 32s-14.336 32-31.957 32c-17.643 0-31.979-14.357-31.979-32s14.336-32 31.979-32z" />
<glyph unicode="&#xe905;" glyph-name="briefcase" d="M969.963-21.333h-915.925c-29.803 0-54.037 24.555-54.037 54.72v658.56c0 30.165 24.235 54.72 54.037 54.72h265.963v81.067c0 49.408 40.192 89.6 89.6 89.6h204.8c49.408 0 89.6-40.192 89.6-89.6v-81.067h265.963c29.803 0 54.037-24.555 54.037-54.72v-658.56c0-30.165-24.235-54.72-54.037-54.72zM661.333 827.733c0 25.877-21.056 46.933-46.933 46.933h-204.8c-25.877 0-46.933-21.056-46.933-46.933v-81.067h298.667v81.067zM981.333 691.947c0 6.528-5.205 12.053-11.371 12.053h-915.925c-6.272 0-11.371-5.397-11.371-12.053v-222.613h384v3.051c0 45.376 38.272 82.283 85.333 82.283 22.357 0 43.584-8.448 59.797-23.829 16.491-15.744 25.536-36.48 25.536-58.453v-3.051h384v222.613zM469.333 472.384v-91.456c0-10.197 4.352-19.968 12.267-27.52 8.149-7.787 18.944-12.075 30.4-12.075 23.531 0 42.667 17.771 42.667 39.595v91.456c0 10.197-4.352 19.989-12.267 27.541-8.192 7.765-19.008 12.075-30.4 12.075-23.531 0-42.667-17.771-42.667-39.616zM981.333 426.667h-384v-45.739c0-45.355-38.272-82.261-85.333-82.261-22.464 0-43.733 8.491-59.861 23.893-16.427 15.68-25.472 36.416-25.472 58.368v45.739h-384v-393.28c0-6.656 5.099-12.053 11.371-12.053h915.925c6.165 0 11.371 5.525 11.371 12.053v393.28z" />
<glyph unicode="&#xe906;" glyph-name="bubbles" d="M874.752 160c9.579-91.733 57.771-144.981 58.261-145.536 5.781-6.272 7.275-15.381 3.797-23.147-3.413-7.701-11.051-12.651-19.477-12.651-0.085 0-0.171 0-0.256 0-5.589 0.064-134.869 2.816-223.211 107.328h-75.285c-89.472 0.021-174.293 23.275-245.269 67.264-10.027 6.208-13.099 19.349-6.891 29.376 6.187 10.005 19.328 13.099 29.355 6.891 64.256-39.808 141.333-60.864 222.891-60.864h85.333c6.549 0 12.736-3.008 16.768-8.171 46.315-58.965 109.483-82.901 151.659-92.587-17.664 31.531-37.44 79.829-41.323 142.123-0.491 8.021 3.541 15.637 10.453 19.712 90.133 53.077 139.776 133.568 139.776 226.624 0 52.117-40.363 127.424-100.416 187.435-8.341 8.341-8.341 21.845 0 30.187 8.341 8.32 21.824 8.32 30.165 0 68.587-68.544 112.917-153.963 112.917-217.621 0-104.683-52.885-195.243-149.248-256.363zM405.419 256.512h-75.285c-88.341-104.491-217.621-107.264-223.211-107.328-0.085 0-0.171 0-0.256 0-8.427 0-16.064 4.949-19.477 12.651-3.456 7.765-1.984 16.832 3.755 23.083 0.491 0.555 48.725 54.592 58.304 145.621-96.363 61.099-149.248 151.659-149.248 256.341 0 182.208 181.824 330.453 405.333 330.453s405.333-148.245 405.333-330.453c0-182.144-181.781-330.325-405.248-330.368zM405.333 874.667c-199.979 0-362.667-129.088-362.667-287.787 0-93.056 49.621-173.525 139.776-226.603 6.912-4.096 10.944-11.712 10.453-19.733-3.883-62.272-23.659-110.571-41.323-142.123 42.176 9.685 105.344 33.621 151.659 92.608 4.032 5.141 10.219 8.149 16.768 8.149h85.333c199.979 0 362.667 129.067 362.667 287.701 0 158.699-162.688 287.787-362.667 287.787z" />
<glyph unicode="&#xe907;" glyph-name="calculator" d="M969.963-64h-915.925c-29.803 0-54.037 24.256-54.037 54.037v915.925c0 29.781 24.235 54.037 54.037 54.037h915.925c29.803 0 54.037-24.256 54.037-54.037v-915.925c0-29.781-24.235-54.037-54.037-54.037zM981.333 905.963c0 6.165-5.205 11.371-11.371 11.371h-915.925c-6.165 0-11.371-5.205-11.371-11.371v-915.925c0-6.165 5.205-11.371 11.371-11.371h915.925c6.165 0 11.371 5.205 11.371 11.371v915.925zM811.627 170.667h-213.333c-11.776 0-21.333 9.536-21.333 21.333s9.557 21.333 21.333 21.333h213.333c11.776 0 21.333-9.536 21.333-21.333s-9.557-21.333-21.333-21.333zM810.667 298.667h-213.333c-11.776 0-21.333 9.536-21.333 21.333s9.557 21.333 21.333 21.333h213.333c11.776 0 21.333-9.536 21.333-21.333s-9.557-21.333-21.333-21.333zM810.667 618.667h-213.333c-11.776 0-21.333 9.536-21.333 21.333s9.557 21.333 21.333 21.333h213.333c11.776 0 21.333-9.536 21.333-21.333s-9.557-21.333-21.333-21.333zM441.749 134.251c-4.16-4.16-9.621-6.251-15.083-6.251s-10.923 2.091-15.083 6.251l-91.584 91.584-91.584-91.584c-4.16-4.16-9.621-6.251-15.083-6.251s-10.923 2.091-15.083 6.251c-8.341 8.341-8.341 21.824 0 30.165l91.584 91.584-91.584 91.584c-8.341 8.341-8.341 21.824 0 30.165s21.824 8.341 30.165 0l91.584-91.584 91.584 91.584c8.341 8.341 21.824 8.341 30.165 0s8.341-21.824 0-30.165l-91.584-91.584 91.584-91.584c8.341-8.341 8.341-21.824 0-30.165zM426.667 618.667h-85.333v-85.333c0-11.797-9.557-21.333-21.333-21.333s-21.333 9.536-21.333 21.333v85.333h-85.333c-11.776 0-21.333 9.536-21.333 21.333s9.557 21.333 21.333 21.333h85.333v85.333c0 11.797 9.557 21.333 21.333 21.333s21.333-9.536 21.333-21.333v-85.333h85.333c11.776 0 21.333-9.536 21.333-21.333s-9.557-21.333-21.333-21.333z" />
<glyph unicode="&#xe908;" glyph-name="call-end" horiz-adv-x="1028" d="M193.152-64c-5.013 0-9.92 1.771-13.781 5.013l-153.92 129.28c-0.512 0.448-1.92 1.835-2.411 2.325-39.701 39.552-27.371 120.277 35.883 233.195 58.069 103.723 152.469 223.019 265.813 335.893 191.104 190.379 392.64 318.293 501.483 318.293 27.499 0 49.301-7.829 64.811-23.296 0.427-0.405 1.707-1.685 2.091-2.133l129.835-152.299c3.733-4.352 5.547-10.005 5.035-15.723-0.533-5.696-3.307-10.965-7.765-14.592l-235.541-192.448c-7.467-6.101-18.155-6.464-26.005-0.853l-135.147 96.171-316.928-315.776 96.512-134.635c5.611-7.829 5.269-18.432-0.853-25.899l-192.512-234.688c-3.627-4.416-8.896-7.211-14.613-7.744-0.661-0.064-1.323-0.085-1.984-0.085zM826.219 917.333c-96.704 0-290.475-125.739-471.211-305.792-110.613-110.187-202.496-226.133-258.709-326.528-59.627-106.496-61.205-164.032-42.795-182.4l136.853-115.008 168.384 205.291-97.557 136.064c-6.059 8.491-5.099 20.117 2.304 27.477l342.571 341.333c7.403 7.403 19.093 8.341 27.584 2.283l136.576-97.173 206.016 168.32-115.051 134.933c-8.384 7.808-19.776 11.2-34.965 11.2z" />
<glyph unicode="&#xe909;" glyph-name="call-in" d="M1017.694 923.598l-304.917-304.917h161.832c11.778 0 21.332-9.555 21.332-21.332 0-11.799-7.781-20.093-19.558-20.093h-208.707c-2.095-0.663-4.232-1.24-6.413-1.24-5.451 0-10.923 2.073-15.091 6.242-5.921 5.942-7.439 14.45-4.916 21.888v208.237c0 11.799 8.229 19.622 20.007 19.622s21.332-9.533 21.332-21.332v-161.832l304.939 304.917c8.336 8.336 21.824 8.336 30.16 0s8.336-21.824 0-30.16zM755.549 337.362c7.845 5.6 18.425 5.28 25.885-0.834l234.678-191.8c4.425-3.612 7.225-8.849 7.738-14.535 0.534-5.707-1.24-11.35-4.916-15.732l-129.32-153.324c-0.342-0.406-1.582-1.71-1.967-2.095-15.347-15.347-36.701-23.042-63.634-23.042-109.206 0-312.463 129.918-505.801 323.3-208.237 208.28-382.402 476.774-294.999 564.22 0.406 0.406 1.667 1.667 2.116 2.031l152.32 129.384c4.361 3.698 10.004 5.493 15.732 5.002 5.686-0.534 10.944-3.292 14.578-7.738l192.462-234.657c6.113-7.439 6.455-18.083 0.876-25.928l-96.188-134.621 315.797-315.797 134.642 96.167zM603.507 198.252l-341.34 341.34c-7.374 7.374-8.336 19.003-2.287 27.488l97.193 136.032-168.351 205.245-134.963-114.614c-48.522-52.241 60.577-270.182 294.636-504.284 203.983-204.048 393.667-310.795 475.619-310.795 15.198 0 26.42 3.484 33.303 10.388l115.020 136.352-205.266 167.774-136.074-97.193c-8.486-6.071-20.135-5.087-27.488 2.266z" />
<glyph unicode="&#xe90a;" glyph-name="call-out" d="M1022.333 946.833c1.069-2.608 1.646-5.387 1.646-8.165v-213.324c0-11.799-9.555-21.332-21.332-21.332-11.799 0-19.387 11.072-19.387 22.871v162.259l-306.884-306.884c-4.168-4.168-9.619-6.242-15.091-6.242-5.451 0-10.923 2.073-15.070 6.242-8.336 8.336-8.336 21.845 0 30.16l306.841 306.841h-162.174c-11.778 0-22.914 7.631-22.914 19.43 0 11.778 9.555 21.332 21.332 21.332h213.324c2.779 0 5.558-0.577 8.165-1.646 5.216-2.159 9.384-6.327 11.543-11.543zM755.57 337.362c7.845 5.6 18.447 5.28 25.885-0.834l234.678-191.8c4.425-3.612 7.225-8.849 7.738-14.535 0.534-5.707-1.24-11.35-4.916-15.732l-129.32-153.324c-0.342-0.406-1.582-1.71-1.945-2.095-15.369-15.347-36.723-23.042-63.634-23.042-109.227 0-312.505 129.918-505.823 323.3-208.237 208.28-382.402 476.795-294.999 564.22 0.406 0.406 1.667 1.667 2.116 2.031l152.32 129.384c4.361 3.698 10.004 5.493 15.732 5.002 5.686-0.534 10.944-3.292 14.578-7.738l192.462-234.657c6.113-7.439 6.455-18.083 0.876-25.928l-96.188-134.621 315.797-315.797 134.642 96.167zM603.529 198.252l-341.34 341.34c-7.374 7.374-8.336 19.003-2.287 27.488l97.193 136.032-168.351 205.245-134.963-114.614c-48.522-52.241 60.577-270.182 294.614-504.284 204.005-204.048 393.71-310.795 475.662-310.795 15.198 0 26.398 3.484 33.281 10.388l115.020 136.352-205.266 167.774-136.074-97.193c-8.486-6.071-20.135-5.087-27.488 2.266z" />
<glyph unicode="&#xe90b;" glyph-name="compass" d="M511.979-64c-282.304 0-511.979 229.675-511.979 511.979 0 282.325 229.675 512.021 511.979 512.021 282.325 0 512.021-229.696 512.021-512.021 0-282.304-229.696-511.979-512.021-511.979zM511.979 917.333c-258.773 0-469.312-210.56-469.312-469.355 0-258.773 210.539-469.312 469.312-469.312 258.795 0 469.355 210.539 469.355 469.312 0 258.795-210.56 469.355-469.355 469.355zM617.856 352.533c-2.133-4.608-5.845-8.32-10.432-10.432l-321.195-148.181c-2.859-1.301-5.909-1.941-8.917-1.941-5.568 0-11.029 2.155-15.104 6.251-6.315 6.315-8.021 15.893-4.288 24l148.181 321.195c2.133 4.608 5.845 8.32 10.432 10.432l321.152 148.181c8.107 3.712 17.685 2.027 24.021-4.309 6.336-6.293 8.021-15.893 4.288-24l-148.139-321.195zM320.917 256.917l240.853 111.104-129.728 129.749-111.125-240.853zM462.208 527.936l129.728-129.728 111.083 240.832-240.811-111.104z" />
<glyph unicode="&#xe90c;" glyph-name="cup" d="M831.936 128h-63.936c0-105.877-86.144-192-192-192h-384c-105.856 0-192 86.123-192 192v490.667c0 23.509 19.136 42.667 42.667 42.667h682.667c23.531 0 42.667-19.157 42.667-42.667v-106.667h63.936c105.899 0 192.064-86.123 192.064-192s-86.165-192-192.064-192zM725.333 618.667h-682.667v-490.667c0-82.325 66.987-149.333 149.333-149.333h384c82.347 0 149.333 67.008 149.333 149.333v490.667zM831.936 469.333h-63.936v-298.667h63.936c82.368 0 149.397 67.008 149.397 149.333s-67.029 149.333-149.397 149.333zM576 746.667c-11.776 0-21.333 9.536-21.333 21.333v170.667c0 11.797 9.557 21.333 21.333 21.333s21.333-9.536 21.333-21.333v-170.667c0-11.797-9.557-21.333-21.333-21.333zM384 746.667c-11.776 0-21.333 9.536-21.333 21.333v170.667c0 11.797 9.557 21.333 21.333 21.333s21.333-9.536 21.333-21.333v-170.667c0-11.797-9.557-21.333-21.333-21.333zM192 746.667c-11.776 0-21.333 9.536-21.333 21.333v170.667c0 11.797 9.557 21.333 21.333 21.333s21.333-9.536 21.333-21.333v-170.667c0-11.797-9.557-21.333-21.333-21.333z" />
<glyph unicode="&#xe90d;" glyph-name="diamond" horiz-adv-x="1021" d="M1014.272 623.083l-486.357-678.187c-0.021-0.043-0.064-0.064-0.085-0.085-1.771-2.432-4.117-4.288-6.677-5.76-0.619-0.363-1.216-0.661-1.856-0.96-2.709-1.216-5.568-2.091-8.661-2.091-3.115 0-5.973 0.875-8.683 2.091-0.64 0.299-1.216 0.597-1.835 0.939-2.581 1.493-4.928 3.349-6.677 5.781-0.043 0.043-0.085 0.043-0.107 0.085l-486.4 678.251c-4.288 3.435-7.040 8.533-7.040 15.061 0 0.107 0.043 0.213 0.043 0.32 0 0.149 0.085 0.277 0.085 0.427 0.085 3.157 0.832 6.165 2.027 9.024 0.277 0.683 0.107 1.451 0.469 2.112l163.136 296.277c0.341 0.597 1.067 1.152 1.536 1.728 2.517 3.627 5.888 6.699 10.389 8.213 0.192 0.064 0.405 0 0.619 0.064 4.395 2.133 9.003 3.627 12.48 3.627h640c3.477 0 8.085-1.493 12.459-3.627 0.171-0.064 0.341-0.021 0.512-0.064 4.48-1.493 7.808-4.565 10.347-8.149 0.469-0.597 1.216-1.173 1.557-1.792l163.179-296.277c0.363-0.64 0.192-1.387 0.469-2.069 1.195-2.859 1.941-5.888 2.048-9.067-0.021-0.149 0.085-0.277 0.064-0.427 0-0.107 0.064-0.213 0.064-0.32 0-6.571-2.773-11.691-7.104-15.125zM958.72 618.667h-205.205l-178.24-534.72 383.445 534.72zM510.635 901.461l-186.773-240.128h373.547l-186.773 240.128zM510.635 24.576l198.037 594.091h-396.117l198.080-594.091zM445.973 83.968l-178.261 534.699h-205.163l383.424-534.699zM176.917 891.029l-120.149-229.696h196.715l-76.565 229.696zM212.992 917.333l76.821-230.443 179.264 230.443h-256.085zM552.192 917.333l179.221-230.421 76.821 230.421h-256.043zM844.352 891.179l-76.608-229.845h196.757l-120.149 229.845z" />
<glyph unicode="&#xe90e;" glyph-name="direction" horiz-adv-x="939" d="M929.835 622.699l-265.472-192c-0.853-0.597-1.813-0.896-2.709-1.365-0.789-0.405-1.493-0.853-2.325-1.152-2.411-0.917-4.928-1.515-7.445-1.515-0.021 0-0.021 0-0.021 0s0 0 0 0h-203.861v-469.333c0-11.797-9.536-21.333-21.333-21.333s-21.333 9.536-21.333 21.333v469.333h-383.787c-11.797 0-21.547 9.749-21.547 21.547v383.573c0 11.797 9.749 21.547 21.547 21.547h383.787v85.333c0 11.797 9.536 21.333 21.333 21.333s21.333-9.536 21.333-21.333v-85.333h203.861c0.789 0 1.451-0.363 2.219-0.448 1.451-0.149 2.837-0.405 4.267-0.853 1.408-0.469 2.667-1.067 3.925-1.792 0.661-0.384 1.429-0.491 2.091-0.96l265.472-191.979c5.547-4.032 8.832-10.453 8.832-17.301s-3.285-13.269-8.832-17.301zM644.949 810.667h-602.283v-341.333h602.283l235.989 170.667-235.989 170.667z" />
<glyph unicode="&#xe90f;" glyph-name="directions" d="M1016.341 730.261l-128-106.645c-1.024-0.853-2.219-1.28-3.328-1.899-0.896-0.512-1.664-1.109-2.624-1.493-2.496-0.981-5.077-1.557-7.701-1.557 0 0 0 0 0 0-0.021 0-0.021 0-0.021 0h-341.333v-85.333h255.787c3.307 0 6.592-0.768 9.557-2.24 7.211-3.627 11.989-11.221 11.989-19.307v-212.907c0-5.675-2.347-11.307-6.357-15.296-3.989-3.989-9.408-6.251-15.083-6.251h-255.893v-320c0-11.797-9.536-21.333-21.333-21.333s-21.333 9.536-21.333 21.333v320h-341.333c0 0 0 0-0.021 0 0 0 0 0 0 0-2.624 0-5.205 0.576-7.701 1.557-0.96 0.384-1.728 0.981-2.624 1.493-1.109 0.619-2.304 1.045-3.328 1.899l-128 106.667c-4.843 4.053-7.659 10.048-7.659 16.384s2.816 12.331 7.659 16.405l128 106.667c0.789 0.64 1.749 0.853 2.581 1.387 1.28 0.789 2.475 1.579 3.904 2.091s2.837 0.661 4.309 0.875c0.981 0.128 1.856 0.576 2.88 0.576h341.333v85.333h-255.787c-11.797 0-21.547 9.749-21.547 21.547v212.907c0 11.797 9.749 21.547 21.547 21.547h255.787v64c0 11.797 9.536 21.333 21.333 21.333s21.333-9.536 21.333-21.333v-64h341.333c1.024 0 1.899-0.448 2.88-0.576 1.472-0.213 2.88-0.363 4.309-0.875s2.645-1.301 3.904-2.112c0.832-0.512 1.792-0.725 2.581-1.365l128-106.667c4.843-4.075 7.659-10.069 7.659-16.405s-2.816-12.331-7.659-16.405zM157.077 490.667l-102.4-85.333 102.4-85.333h610.923v170.667h-610.923zM866.923 832h-610.923v-170.667h610.923l102.421 85.333-102.421 85.333z" />
<glyph unicode="&#xe910;" glyph-name="documents" d="M1023.595 679.445v-573.035c0-23.488-19.136-42.603-42.645-42.603h-213.248c-11.797 0-21.333 9.536-21.333 21.291 0 11.776 9.536 21.312 21.333 21.312h213.248v554.923h-234.283c-11.776 0-21.632 8.405-21.632 20.181v235.819h-341.035c0-11.776-9.685-22.827-21.483-22.827-11.776 0-21.333 9.536-21.333 21.312v10.645c0 18.517 18.091 33.536 42.816 33.536h362.667c6.869 0 12.608-3.989 16.427-9.472l251.947-251.627c0.683-0.491 1.003-1.301 1.621-1.856 0.619-0.576 1.088-1.237 1.643-1.877 3.285-3.755 5.717-8.277 5.717-13.653 0-0.725-0.363-1.344-0.427-2.069zM767.701 885.696v-182.891h183.083l-183.083 182.891zM406.443 830.357c1.963-0.128 3.84-0.512 5.696-1.152 0.683-0.235 1.344-0.405 1.984-0.704 2.176-1.003 4.224-2.283 5.995-4.032 0.043-0.043 0.107-0.085 0.149-0.128l253.568-253.248c0.683-0.469 1.024-1.301 1.621-1.856 0.619-0.576 1.088-1.216 1.643-1.856 3.285-3.755 5.717-8.299 5.717-13.675 0-0.725-0.341-1.344-0.427-2.048v-573.056c0-23.467-19.136-42.603-42.645-42.603h-597.099c-23.509 0-42.645 19.136-42.645 42.603v809.408c0 23.488 19.136 42.603 42.645 42.603h362.517c0.469 0 0.832-0.235 1.28-0.256zM426.496 757.888v-182.869h183.083l-183.083 182.869zM383.851 553.707v235.627h-341.184l-0.021-810.731h597.099v554.731h-234.411c-11.776 0-21.483 8.597-21.483 20.373z" />
<glyph unicode="&#xe911;" glyph-name="drawer" d="M979.2 21.333h-934.635c-23.445 0-44.565 19.136-44.565 42.667v426.667c0 3.797 1.579 6.059 3.648 7.851 0.853 2.112 2.155 3.925 3.584 5.653l93.227 354.603c2.475 9.365 10.901 15.893 20.544 15.893h781.76c9.643 0 18.069-6.528 20.544-15.893l93.205-354.603c1.408-1.664 2.731-3.413 3.563-5.461 2.24-1.792 3.925-4.117 3.925-8.043v-426.667c0-23.531-21.376-42.667-44.8-42.667zM981.333 64v405.333h-278.677c-10.987-94.485-93.888-170.667-190.784-170.667-96.064 0-178.24 76.181-189.163 170.667h-280.043v-405.333h938.667zM886.4 832h-749.035l-84.139-320h289.515c11.733 0 21.227-9.557 21.227-21.333 0-80.939 67.733-149.333 147.904-149.333 81.067 0 149.547 68.395 149.547 149.333 0 11.776 9.515 21.333 21.248 21.333h287.851l-84.117 320z" />
<glyph unicode="&#xe912;" glyph-name="droplet" horiz-adv-x="683" d="M341.333-64c-188.203 0-341.333 159.744-341.333 356.117 0 254.613 311.467 643.52 324.736 659.947 4.032 5.013 10.133 7.936 16.576 7.936h0.021c6.421 0 12.501-2.901 16.555-7.893 13.269-16.341 324.779-403.157 324.779-659.989 0-196.373-153.131-356.117-341.333-356.117zM341.376 904.021c-64.981-84.864-298.709-404.587-298.709-611.904 0-172.821 133.973-313.451 298.667-313.451s298.667 140.629 298.667 313.451c0 209.237-233.579 527.36-298.624 611.904z" />
<glyph unicode="&#xe913;" glyph-name="feed" d="M1002.667 21.291c-11.776 0-21.333 9.536-21.333 21.333v82.987c0 436.565-355.157 791.723-791.701 791.723h-82.965c-11.776 0-21.333 9.536-21.333 21.333s9.557 21.333 21.333 21.333h82.965c460.075 0 834.368-374.315 834.368-834.389v-82.987c0-11.797-9.557-21.333-21.333-21.333zM341.333 106.667c0-94.101-76.565-170.667-170.667-170.667s-170.667 76.565-170.667 170.667c0 94.101 76.565 170.667 170.667 170.667s170.667-76.565 170.667-170.667zM42.667 106.667c0-70.592 57.408-128 128-128s128 57.408 128 128c0 70.592-57.408 128-128 128s-128-57.408-128-128zM106.667 576c-11.776 0-21.333 9.536-21.333 21.333s9.557 21.333 21.333 21.333h81.579c272.64 0 494.421-221.824 494.421-494.443v-81.557c0-11.797-9.557-21.333-21.333-21.333s-21.333 9.536-21.333 21.333v81.557c0 249.109-202.667 451.776-451.755 451.776h-81.579z" />
<glyph unicode="&#xe914;" glyph-name="film" d="M960-64h-896c-35.285 0-64 28.715-64 64v896c0 35.285 28.715 64 64 64h896c35.285 0 64-28.715 64-64v-896c0-35.285-28.715-64-64-64zM981.333 896c0 11.755-9.557 21.333-21.333 21.333h-896c-11.776 0-21.333-9.579-21.333-21.333v-896c0-11.755 9.557-21.333 21.333-21.333h896c11.776 0 21.333 9.579 21.333 21.333v896zM874.667 85.333h-85.333c-11.797 0-21.333 9.557-21.333 21.333v42.667c0 11.776 9.536 21.333 21.333 21.333h85.333c11.797 0 21.333-9.557 21.333-21.333v-42.667c0-11.776-9.536-21.333-21.333-21.333zM874.667 298.667h-85.333c-11.797 0-21.333 9.557-21.333 21.333v42.667c0 11.776 9.536 21.333 21.333 21.333h85.333c11.797 0 21.333-9.557 21.333-21.333v-42.667c0-11.776-9.536-21.333-21.333-21.333zM874.667 512h-85.333c-11.797 0-21.333 9.557-21.333 21.333v42.667c0 11.776 9.536 21.333 21.333 21.333h85.333c11.797 0 21.333-9.557 21.333-21.333v-42.667c0-11.776-9.536-21.333-21.333-21.333zM874.667 725.333h-85.333c-11.797 0-21.333 9.557-21.333 21.333v42.667c0 11.776 9.536 21.333 21.333 21.333h85.333c11.797 0 21.333-9.557 21.333-21.333v-42.667c0-11.776-9.536-21.333-21.333-21.333zM234.667 85.333h-85.333c-11.797 0-21.333 9.557-21.333 21.333v42.667c0 11.776 9.536 21.333 21.333 21.333h85.333c11.797 0 21.333-9.557 21.333-21.333v-42.667c0-11.776-9.536-21.333-21.333-21.333zM234.667 298.667h-85.333c-11.797 0-21.333 9.557-21.333 21.333v42.667c0 11.776 9.536 21.333 21.333 21.333h85.333c11.797 0 21.333-9.557 21.333-21.333v-42.667c0-11.776-9.536-21.333-21.333-21.333zM234.667 512h-85.333c-11.797 0-21.333 9.557-21.333 21.333v42.667c0 11.776 9.536 21.333 21.333 21.333h85.333c11.797 0 21.333-9.557 21.333-21.333v-42.667c0-11.776-9.536-21.333-21.333-21.333zM234.667 725.333h-85.333c-11.797 0-21.333 9.557-21.333 21.333v42.667c0 11.776 9.536 21.333 21.333 21.333h85.333c11.797 0 21.333-9.557 21.333-21.333v-42.667c0-11.776-9.536-21.333-21.333-21.333z" />
<glyph unicode="&#xe915;" glyph-name="folder" d="M960 45.44h-896c-35.285 0-64 28.608-64 63.787v680.555c0 35.179 28.715 63.787 64 63.787h317.141c0.981 0 1.835-0.427 2.773-0.555 1.472-0.192 2.901-0.363 4.331-0.853 1.408-0.512 2.624-1.28 3.883-2.048 0.811-0.491 1.728-0.683 2.496-1.323l124.971-101.547h440.405c35.285 0 64-28.629 64-63.808v-574.208c0-35.179-28.715-63.787-64-63.787zM64 87.979h896c11.776 0 21.333 9.515 21.333 21.248v469.44h-938.667v-469.44c0-11.733 9.557-21.248 21.333-21.248zM960 706.667h-439.104c-2.816-1.28-5.845-1.963-8.917-1.963-4.736 0-9.493 1.557-13.461 4.779l-127.787 103.851h-306.731c-11.776 0-21.333-11.819-21.333-23.552v-170.133h938.667v63.787c0 11.733-9.557 23.232-21.333 23.232z" />
<glyph unicode="&#xe916;" glyph-name="frame" d="M1002.667 64h-213.333c-11.776 0-21.333 9.536-21.333 21.333s9.557 21.333 21.333 21.333h192v193.045c0 11.797 9.557 21.333 21.333 21.333s21.333-9.536 21.333-21.333v-214.379c0-11.797-9.557-21.333-21.333-21.333zM1002.667 576.704c-11.776 0-21.333 9.557-21.333 21.333v190.955h-192c-11.776 0-21.333 9.557-21.333 21.333 0 11.797 9.557 21.333 21.333 21.333h213.333c11.776 0 21.333-9.536 21.333-21.333v-212.288c0-11.776-9.557-21.333-21.333-21.333zM234.667 64h-213.333c-11.776 0-21.333 9.536-21.333 21.333v212.288c0 11.797 9.557 21.333 21.333 21.333s21.333-9.536 21.333-21.333v-190.955h192c11.776 0 21.333-9.536 21.333-21.333s-9.557-21.333-21.333-21.333zM234.667 789.333h-192v-193.045c0-11.797-9.557-21.333-21.333-21.333s-21.333 9.536-21.333 21.333v214.379c0 11.797 9.557 21.333 21.333 21.333h213.333c11.776 0 21.333-9.536 21.333-21.333s-9.557-21.333-21.333-21.333z" />
<glyph unicode="&#xe917;" glyph-name="globe-1" d="M512-64c-282.304 0-512 229.696-512 512s229.696 512 512 512c282.304 0 512-229.696 512-512s-229.696-512-512-512zM917.952 213.205c36.821 63.296 59.136 135.936 62.656 213.461h-192.192c-2.219-74.688-15.381-146.389-39.168-213.333h168.085c0.213 0 0.405-0.107 0.619-0.128zM533.333 469.333h212.352c-2.411 75.093-16.768 146.837-42.283 213.333h-170.069v-213.333zM889.749 170.667h-157.589c-28.736-65.899-67.413-126.763-116.501-180.075 111.744 25.323 208.213 90.773 274.091 180.075zM533.333-20.245c3.797 0.256 7.616 0.299 11.413 0.576 59.819 54.187 106.624 118.827 140.48 190.336h-151.893v-190.912zM703.403 213.333c25.515 66.517 39.872 138.24 42.283 213.333h-212.352v-213.333h170.069zM490.667 426.667h-212.352c2.411-75.093 16.747-146.837 42.261-213.333h170.091v213.333zM490.667-20.245v190.912h-151.936c33.835-71.509 80.619-136.149 140.416-190.336 3.819-0.256 7.701-0.32 11.52-0.576zM408.427-9.429c-48.341 52.928-86.891 114.048-115.712 180.096h-158.464c65.899-89.323 162.389-154.795 274.176-180.096zM106.667 213.333h168.875c-24.107 67.435-37.632 139.371-39.936 213.333h-192.213c3.52-77.525 25.835-150.165 62.656-213.461 0.213 0.021 0.405 0.128 0.619 0.128zM106.048 682.795c-36.821-63.296-59.136-135.936-62.656-213.461h192.192c2.219 74.688 15.403 146.389 39.189 213.333h-168.107c-0.213 0-0.405 0.107-0.619 0.128zM134.251 725.333h157.611c28.757 65.899 67.456 126.784 116.565 180.096-111.787-25.301-208.277-90.773-274.176-180.096zM490.667 916.245c-3.755-0.235-7.573-0.299-11.328-0.576-59.819-54.187-106.667-118.848-140.523-190.336h151.851v190.912zM320.64 682.667c-25.557-66.517-39.915-138.261-42.325-213.333h212.352v213.333h-170.027zM533.333 916.245v-190.912h151.893c-33.856 71.509-80.683 136.149-140.501 190.336-3.776 0.277-7.616 0.32-11.392 0.576zM615.637 905.408c49.109-53.312 87.787-114.176 116.523-180.075h157.589c-65.877 89.301-162.347 154.773-274.112 180.075zM917.333 682.667h-168.085c23.787-66.944 36.949-138.645 39.168-213.333h192.192c-3.52 77.525-25.835 150.165-62.656 213.461-0.213-0.021-0.405-0.128-0.619-0.128z" />
<glyph unicode="&#xe918;" glyph-name="globe-2" d="M468.884 67.244v-87.547h107.789c11.922 0 21.558-9.615 21.558-21.493s-9.636-21.493-21.558-21.493h-258.695c-11.922 0-21.558 9.615-21.558 21.493s9.636 21.493 21.558 21.493h107.789v86.598c-76.681 2.565-152.781 25.201-226.444 67.95-10.283 5.993-13.775 19.143-7.782 29.405 5.972 10.262 19.165 13.732 29.47 7.761 70.731-41.046 143.554-62.022 216.484-62.518 2.975 1.552 6.23 2.652 9.83 2.652 3.147 0 6.079-0.733 8.774-1.94 234.27 8.472 422.384 200.661 422.384 436.31 0 155.044-81.748 295.041-218.683 374.504-10.283 5.95-13.754 19.122-7.782 29.383 5.993 10.262 19.187 13.732 29.47 7.761 150.345-87.223 240.112-241.125 240.112-411.648 0-255.073-200.639-463.71-452.716-478.672zM792.274 538.629c0-189.645-154.743-343.956-344.926-343.956-190.205 0-344.948 154.311-344.948 343.956s154.743 343.956 344.948 343.956c190.184 0 344.926-154.311 344.926-343.956zM447.348 839.599c-166.427 0-301.832-135.017-301.832-300.97s135.405-300.948 301.832-300.948c166.427 0 301.811 134.996 301.811 300.948s-135.384 300.97-301.811 300.97z" />
<glyph unicode="&#xe919;" glyph-name="handbag" horiz-adv-x="1020" d="M1010.411-46.357c-8.725-11.221-22.464-17.643-37.696-17.643h-923.328c-14.72 0-28.523 6.165-37.888 16.896-9.387 10.795-13.632 25.429-11.648 40.149l84.501 563.84c7.083 46.123 50.581 83.563 96.96 83.563h94.443v84.885c0 129.387 104.917 234.667 233.877 234.667 128.939 0 233.856-105.259 233.877-234.645 0 0 0 0 0 0l0.043-84.907h97.237c46.72 0 89.451-37.824 95.253-84.352l82.667-563.541c3.307-12.757 0.405-27.691-8.299-38.912zM297.152 469.333c-11.797 0-21.397-9.6-21.397-21.376 0-11.712 9.6-21.248 21.397-21.248 11.648 0 21.12 9.536 21.12 21.248 0 11.776-9.472 21.376-21.12 21.376zM700.971 725.333c0 0 0 0 0 0 0 105.856-85.824 192-191.339 192s-191.36-86.144-191.36-192v-84.885h382.741l-0.043 84.885c0 0 0 0 0 0zM722.368 469.333c-11.797 0-21.397-9.6-21.397-21.376 0-11.712 9.6-21.248 21.397-21.248 11.648 0 21.141 9.536 21.141 21.248 0 11.776-9.493 21.376-21.141 21.376zM893.909 550.357c-3.243 25.92-27.541 47.424-53.12 47.424h-97.216l0.043-89.728c24.64-8.853 42.411-32.32 42.411-60.096 0-35.243-28.544-63.915-63.659-63.915-35.243 0-63.915 28.672-63.915 63.915 0 27.797 17.877 51.285 42.645 60.117l-0.043 89.707h-382.784v-89.685c24.704-8.832 42.539-32.32 42.539-60.139 0-35.243-28.565-63.915-63.659-63.915-35.243 0-63.915 28.672-63.915 63.915 0 27.755 17.835 51.221 42.517 60.075v89.749h-94.443c-25.835 0-50.987-21.675-54.912-47.317l-84.459-563.456c-0.299-2.283 0.235-4.48 1.579-6.037 1.323-1.493 3.349-2.304 5.867-2.304h923.328c2.368 0 3.691 0.64 4.16 1.216 0.469 0.597 0.768 2.069 0.192 4.395l-83.157 566.080z" />
<glyph unicode="&#xe91a;" glyph-name="headphones-microphone" d="M1010.581 68.352l-327.083-130.837c-2.517-1.003-5.205-1.515-7.915-1.515h-206.251c-11.776 0-21.333 9.536-21.333 21.333v42.667c0 11.797 9.557 21.333 21.333 21.333h85.333c11.797 0 21.333-9.536 21.333-21.333v-21.333h95.488l213.333 85.333h-24.363c-50.987 0-92.459 40.213-92.459 89.621v204.779c0 49.408 41.472 89.6 92.459 89.6h71.125c18.347 0 35.349-5.355 49.749-14.336v14.336c0 258.795-210.539 469.333-469.333 469.333s-469.333-210.539-469.333-469.333v-14.336c14.4 8.981 31.424 14.336 49.792 14.336h71.125c50.965 0 92.416-40.192 92.416-89.6v-204.779c0-49.408-41.451-89.621-92.416-89.621h-71.125c-50.987 0-92.459 40.213-92.459 89.621v294.379c0 282.304 229.696 512 512 512s512-229.696 512-512v-359.829c0-8.725-5.312-16.576-13.419-19.819zM42.667 349.867v-196.245c0-25.899 22.336-46.955 49.792-46.955h71.125c27.435 0 49.749 21.056 49.749 46.955v204.779c0 25.877-22.315 46.933-49.749 46.933h-71.125c-27.456 0-49.792-21.056-49.792-46.933v-8.533zM931.584 405.333h-71.125c-27.456 0-49.792-21.056-49.792-46.933v-204.779c0-25.899 22.336-46.955 49.792-46.955h71.125c27.435 0 49.749 21.056 49.749 46.955v204.779c0 25.877-22.315 46.933-49.749 46.933z" />
<glyph unicode="&#xe91b;" glyph-name="headphones" d="M917.333-42.667h-42.667c-58.816 0-106.667 47.851-106.667 106.667v256c0 58.816 47.851 106.667 106.667 106.667h42.667c24.107 0 46.123-8.341 64-21.888v21.888c0 258.795-210.539 469.333-469.333 469.333s-469.333-210.539-469.333-469.333v-21.888c17.877 13.547 39.893 21.888 64 21.888h42.667c58.816 0 106.667-47.851 106.667-106.667v-256c0-58.816-47.851-106.667-106.667-106.667h-42.667c-58.816 0-106.667 47.851-106.667 106.667v362.667c0 282.304 229.696 512 512 512s512-229.696 512-512v-362.667c0-58.816-47.851-106.667-106.667-106.667zM42.667 64c0-35.285 28.715-64 64-64h42.667c35.285 0 64 28.715 64 64v256c0 35.285-28.715 64-64 64h-42.667c-35.285 0-64-28.715-64-64v-256zM917.333 384h-42.667c-35.285 0-64-28.715-64-64v-256c0-35.285 28.715-64 64-64h42.667c35.285 0 64 28.715 64 64v256c0 35.285-28.715 64-64 64z" />
<glyph unicode="&#xe91c;" glyph-name="layers" d="M1009.536 643.2l-489.131-255.808c-3.072-1.6-6.464-2.411-9.835-2.411s-6.763 0.811-9.835 2.411l-489.024 255.808c-8.683 4.523-13.163 14.443-10.816 23.979 1.6 6.549 6.144 11.755 11.968 14.379l487.957 255.253c6.144 3.2 13.525 3.2 19.669 0l489.045-255.808c7.019-3.691 11.413-10.965 11.413-18.901 0-7.957-4.395-15.232-11.413-18.901zM510.656 893.867l-443.115-231.787 443.029-231.744 443.136 231.765-443.051 231.765zM11.883 477.717l63.787 32.811c10.432 5.419 23.253 1.237 28.629-9.216 5.355-10.496 1.237-23.339-9.216-28.715l-27.883-14.336 443.456-240.875 443.477 240.853-27.904 14.357c-10.453 5.397-14.571 18.24-9.216 28.715 5.376 10.432 18.155 14.592 28.651 9.216l63.232-32.576c5.547-2.688 9.813-7.701 11.413-13.952 2.389-9.472-1.899-19.349-10.453-23.979l-489.067-265.621c-3.157-1.749-6.635-2.581-10.133-2.581s-6.955 0.832-10.133 2.581l-489.067 265.621c-6.933 3.776-11.221 11.072-11.136 18.987 0.107 7.893 4.544 15.104 11.563 18.709zM11.883 264.555l63.787 32.811c10.432 5.397 23.253 1.237 28.629-9.237 5.355-10.475 1.237-23.339-9.216-28.693l-27.883-14.357 443.456-240.875 443.477 240.853-27.904 14.379c-10.453 5.397-14.571 18.24-9.216 28.693 5.376 10.453 18.155 14.613 28.651 9.237l63.232-32.597c5.547-2.667 9.813-7.701 11.413-13.931 2.389-9.472-1.899-19.349-10.453-23.979l-489.067-265.643c-3.157-1.728-6.635-2.581-10.133-2.581s-6.955 0.853-10.133 2.581l-489.067 265.643c-6.933 3.755-11.221 11.072-11.136 18.987 0.107 7.872 4.544 15.104 11.563 18.709z" />
<glyph unicode="&#xe91d;" glyph-name="map" horiz-adv-x="1027" d="M1017.262-60.3c-3.572-2.417-7.764-3.658-11.978-3.658-2.695 0-5.39 0.492-7.935 1.519l-313.135 124.912-334.482-125.083c-0.193-0.086-0.406-0.043-0.599-0.107-2.203-0.77-4.492-1.241-6.866-1.262 0 0-0.021 0-0.043 0 0 0 0 0 0 0s0 0-0.021 0c0 0-0.021 0-0.021 0-2.503 0.021-4.898 0.556-7.187 1.39-0.235 0.086-0.492 0.043-0.727 0.15l-320.836 127.992c-8.106 3.251-13.432 11.080-13.432 19.806v853.294c0 7.080 3.529 13.689 9.411 17.667 5.861 3.978 13.325 4.77 19.935 2.139l313.135-124.912 334.439 125.083c1.091 0.406 2.182 0.299 3.251 0.513 0.128 0.021 0.235 0.021 0.364 0.043 1.305 0.257 2.524 0.791 3.914 0.791s2.609-0.535 3.936-0.791c0.15-0.021 0.299-0.043 0.471-0.086 1.176-0.235 2.374-0.171 3.529-0.642l320.836-127.992c8.128-3.251 13.454-11.080 13.454-19.806v-853.294c0-7.080-3.529-13.71-9.411-17.667zM320.836 796.203l-278.057 110.945v-807.35l278.057-110.924v807.329zM363.614-11.854l299.446 112.014v807.714l-299.446-111.993v-807.735zM983.896 796.224l-278.057 110.924v-807.35l278.057-110.924v807.35z" />
<glyph unicode="&#xe91e;" glyph-name="opened-book" d="M974.763 20.8l-459.477-71.765c-1.088-0.171-2.155-0.235-3.2-0.256-0.021 0-0.043 0-0.043 0-0.021 0-0.021 0-0.043 0 0 0 0 0 0 0s0 0 0 0c-0.021 0-0.021 0-0.021 0-0.021 0-0.043 0-0.043 0-1.067 0.021-2.133 0.085-3.221 0.256l-458.603 71.616c-28.48 5.653-50.112 32.107-50.112 60.373v820.075c0 15.019 6.272 28.8 17.237 37.781 10.965 9.003 25.749 12.416 40.363 9.515l454.4-79.403 454.933 79.509c14.165 2.816 28.885-0.619 39.829-9.621 10.965-8.981 17.237-22.763 17.237-37.781v-820.075c0-28.267-21.632-54.72-49.237-60.224zM490.667 829.291l-440.939 77.056c-2.667 0.533-4.416 0.299-5.461-0.555-1.024-0.853-1.6-2.517-1.6-4.693v-820.075c0-7.851 7.232-16.725 14.891-18.24l433.109-67.627v834.133zM981.333 901.099c0 2.176-0.576 3.84-1.6 4.693-1.045 0.853-2.773 1.088-4.928 0.64l-441.472-77.141v-834.133l433.984 67.776c6.784 1.365 14.016 10.24 14.016 18.091v820.075zM857.515 227.307l-213.333-42.795c-1.408-0.277-2.816-0.405-4.203-0.405-9.963 0-18.88 7.019-20.885 17.195-2.325 11.584 5.163 22.848 16.725 25.173l213.333 42.773c11.627 2.347 22.805-5.184 25.109-16.768s-5.184-22.848-16.747-25.173zM857.515 441.237l-213.333-42.795c-1.408-0.277-2.816-0.405-4.203-0.405-9.963 0-18.88 7.019-20.885 17.195-2.325 11.584 5.163 22.848 16.725 25.173l213.333 42.773c11.627 2.325 22.805-5.205 25.109-16.768 2.304-11.584-5.184-22.869-16.747-25.173zM857.515 676.544l-213.333-42.773c-1.408-0.277-2.816-0.427-4.203-0.427-9.963 0-18.88 7.040-20.885 17.195-2.325 11.584 5.163 22.869 16.725 25.173l213.333 42.795c11.627 2.304 22.805-5.205 25.109-16.789s-5.184-22.848-16.747-25.173zM174.848 718.507l213.333-42.795c11.563-2.304 19.051-13.589 16.747-25.173-2.027-10.155-10.944-17.195-20.907-17.195-1.387 0-2.795 0.149-4.203 0.427l-213.333 42.773c-11.563 2.325-19.051 13.589-16.747 25.173s13.504 19.093 25.109 16.789zM174.848 483.179l213.333-42.773c11.563-2.325 19.051-13.589 16.747-25.173-2.027-10.176-10.944-17.195-20.907-17.195-1.387 0-2.795 0.128-4.203 0.405l-213.333 42.795c-11.563 2.304-19.051 13.589-16.747 25.173 2.304 11.563 13.504 19.115 25.109 16.768zM174.848 269.248l213.333-42.773c11.563-2.325 19.051-13.589 16.747-25.173-2.027-10.176-10.944-17.195-20.907-17.195-1.387 0-2.795 0.128-4.203 0.405l-213.333 42.795c-11.563 2.325-19.051 13.589-16.747 25.173s13.504 19.136 25.109 16.768z" />
<glyph unicode="&#xe91f;" glyph-name="picture" d="M958.016 42.667h-892.096c-35.136 0-65.92 28.715-65.92 64v682.667c0 35.285 30.784 64 65.92 64h892.096c35.136 0 65.984-28.715 65.984-64v-682.667c0-35.285-30.848-64-65.984-64zM981.333 789.333c0 11.755-11.605 21.333-23.317 21.333h-892.096c-11.733 0-23.253-9.579-23.253-21.333v-470.507l264.192 230.613c8.448 7.36 21.077 6.912 28.971-1.024l241.856-242.923 155.179 116.907c8.512 6.421 20.501 5.525 27.947-2.176l220.523-227.029v596.139zM981.333 132.096l-237.909 244.928-155.008-116.757c-8.427-6.357-20.288-5.525-27.755 1.984l-240.875 241.941-277.12-241.899v-155.627c0-11.755 11.52-21.333 23.253-21.333h892.096c11.712 0 23.317 9.579 23.317 21.333v25.429zM681.899 597.291c0 35.307 28.608 64.043 63.787 64.043 35.115 0 63.637-28.736 63.637-64.043 0-35.264-28.523-63.957-63.637-63.957-35.179 0-63.787 28.693-63.787 63.957zM766.848 597.291c0 11.776-9.493 21.376-21.163 21.376-11.755 0-21.312-9.6-21.312-21.376 0-11.733 9.557-21.291 21.312-21.291 11.669 0 21.163 9.557 21.163 21.291z" />
<glyph unicode="&#xe920;" glyph-name="pin" horiz-adv-x="1022" d="M1007.168 547.734c-30.546-9.506-62.331-14.312-94.394-14.312-31.7 0-62.694 4.614-92.194 13.564l-217.433-217.903c40.159-90.634 47.421-194.256 16.875-292.751-2.222-7.135-7.989-12.582-15.252-14.376-1.688-0.406-3.375-0.619-5.084-0.619-5.575 0-11.022 2.2-15.059 6.259l-231.595 232.044-316.74-317.402c-4.165-4.165-9.612-6.259-15.059-6.259s-10.894 2.093-15.059 6.259c-8.309 8.331-8.309 21.831 0 30.183l316.761 317.381-231.574 232.022c-5.276 5.276-7.391 12.945-5.618 20.207 1.794 7.241 7.22 13.030 14.355 15.252 40.116 12.496 81.812 18.84 123.936 18.84 58.871 0 115.712-12.539 167.961-35.715l218.245 218.608c-17.965 59.64-18.926 124.192 0.342 186.203 2.222 7.135 8.010 12.582 15.252 14.355 7.156 1.794 14.889-0.32 20.143-5.618l369.928-370.74c5.298-5.298 7.412-12.966 5.618-20.207-1.794-7.263-7.241-13.052-14.355-15.273zM389.687 494.332c-1.324 0.427-2.521 1.089-3.781 1.794-49.878 24.159-104.818 37.318-161.873 37.318-25.719 0-51.223-2.627-76.237-7.818l440.633-441.488c25.59 122.825-11.578 250.414-101.059 340.087-28.965 29.029-62.032 52.334-97.684 70.107zM431.832 519.965c30.845-17.943 59.768-39.625 85.657-65.535 25.804-25.868 47.549-54.641 65.343-85.337l194.555 194.983c-32.383 15.359-62.395 36.015-88.477 62.139-26.274 26.338-46.588 56.756-61.904 89.267l-195.175-195.517zM642.686 896.878c-14.931-87.281 12.817-176.804 76.344-240.481 51.715-51.8 120.518-80.317 193.744-80.317 15.529 0 30.931 1.303 46.14 3.888l-316.227 316.911z" />
<glyph unicode="&#xe921;" glyph-name="playlist" horiz-adv-x="1022" d="M1015.019 603.008c-8.576-8.043-22.059-7.637-30.101 0.96l-259.584 270.699v-768c0-3.072-0.811-5.973-2.133-8.661-5.44-90.027-98.453-162.005-212.352-162.005-117.397 0-212.885 76.373-212.885 170.261 0 94.293 95.488 171.008 212.885 171.008 70.571 0 133.077-27.84 171.819-70.464v731.861c0 8.747 3.797 14.891 11.925 18.112 8.107 3.221 17.408 1.152 23.36-5.227l298.027-318.4c8.043-8.597 7.616-22.080-0.96-30.144zM510.848 234.624c-93.909 0-170.304-57.6-170.304-128.363 0-70.357 76.395-127.595 170.304-127.595 93.888 0 170.283 57.237 170.283 127.595 0 70.763-76.395 128.363-170.283 128.363zM489.557 575.893h-468.331c-11.755 0-21.291 9.557-21.291 21.333s9.536 21.333 21.291 21.333h468.331c11.755 0 21.291-9.557 21.291-21.333s-9.536-21.333-21.291-21.333zM489.557 746.539h-468.331c-11.755 0-21.291 9.557-21.291 21.333s9.536 21.333 21.291 21.333h468.331c11.755 0 21.291-9.557 21.291-21.333s-9.536-21.333-21.291-21.333zM489.557 917.184h-468.331c-11.755 0-21.291 9.557-21.291 21.333s9.536 21.333 21.291 21.333h468.331c11.755 0 21.291-9.557 21.291-21.333s-9.536-21.333-21.291-21.333z" />
<glyph unicode="&#xe922;" glyph-name="present" d="M1002.667 459.584h-42.667v-438.421c0-39.168-23.936-53.12-46.336-53.12h-783.424c-13.483 0-44.907 5.163-44.907 53.12v438.421h-64c-11.776 0-21.333 9.579-21.333 21.376v158.315c0 30.677 35.264 54.059 64 54.059h141.973c-38.912 28.992-68.011 72.043-68.011 127.765 0 106.859 96.341 106.859 128 106.859 39.659 0 158.251-39.168 256.277-211.648 97.92 171.861 216.107 211.648 255.723 211.648 31.659 0 128 0 128-106.859 0-55.723-29.12-98.773-68.011-127.765h143.381c10.219 0 42.667-2.645 42.667-54.059v-158.315c0-11.797-9.557-21.376-21.333-21.376zM533.333 10.773h380.331c1.429 0 2.197 0.192 2.453 0.256-0.107 0.213 1.216 2.965 1.216 10.133v438.421h-384v-448.811zM128 21.163c0-5.931 0.661-8.981 1.109-10.368 0.043 0 0.085 0 0.128 0 0.256 0 0.597-0.021 1.003-0.021h360.427v448.811h-362.667v-438.421zM63.467 651.947c-8.277 0-20.011-8.619-20.821-12.885l0.021-137.728h448v150.592h-152.213c-2.624-1.131-5.461-1.813-8.491-1.813-7.445 0-15.253 0.725-23.189 1.813l-243.307 0.021zM265.963 885.205c-52.672 0-85.333-10.709-85.333-64.107 0-80.427 84.885-123.072 139.541-127.765h165.973c-89.472 158.272-195.243 191.872-220.181 191.872zM863.296 821.099c0 53.397-32.661 64.107-85.333 64.107-24.939 0-130.731-33.6-220.181-191.872h165.952c54.656 4.693 139.563 47.339 139.563 127.765zM981.333 639.275c0 7.147-0.896 10.901-1.515 12.629h-242.816c-7.893-1.067-15.659-1.792-23.040-1.792-3.008 0-5.867 0.661-8.469 1.792l-172.16 0.021v-150.592h448v137.941z" />
<glyph unicode="&#xe923;" glyph-name="printer" d="M969.963 149.333h-159.296v-192c0-11.776-9.536-21.333-21.333-21.333h-554.667c-11.797 0-21.333 9.557-21.333 21.333v192h-159.296c-29.781 0-54.037 23.936-54.037 53.333v448c0 29.397 24.256 53.333 54.037 53.333h159.296v234.667c0 11.776 9.536 21.333 21.333 21.333h554.667c11.797 0 21.333-9.557 21.333-21.333v-234.667h159.296c29.781 0 54.037-23.936 54.037-53.333v-448c0-29.397-24.256-53.333-54.037-53.333zM256-21.333h512v384h-512v-384zM768 917.333h-512v-213.333h512v213.333zM981.333 650.667c0 5.781-5.205 10.667-11.371 10.667h-915.925c-6.165 0-11.371-4.885-11.371-10.667v-448c0-5.781 5.205-10.667 11.371-10.667h159.296v192c0 11.776 9.536 21.333 21.333 21.333h554.667c11.797 0 21.333-9.557 21.333-21.333v-192h159.296c6.165 0 11.371 4.885 11.371 10.667v448zM832 533.333h-42.667c-11.797 0-21.333 9.557-21.333 21.333s9.536 21.333 21.333 21.333h42.667c11.797 0 21.333-9.557 21.333-21.333s-9.536-21.333-21.333-21.333z" />
<glyph unicode="&#xe924;" glyph-name="puzzle" horiz-adv-x="1016" d="M874.325 587.051l94.144-89.963c34.667-34.944 34.667-91.157 0.405-125.696l-412.885-409.621c-17.067-17.173-39.509-25.771-61.973-25.771-22.507 0-45.035 8.619-62.187 25.899l-406.251 409.493c-34.219 34.539-34.219 90.752 0 125.291l72 77.696c17.877 18.048 39.851 25.856 60.651 21.973 20.864-3.861 38.571-19.051 48.597-41.643 0.789-1.941 42.901-106.667 119.36-106.667 89.984 0 160.491 67.541 160.491 153.749 0 77.568-105.429 120.917-106.496 121.344-23.232 10.475-38.293 28.331-42.155 49.365-3.819 20.992 3.925 43.093 21.269 60.587l71.893 79.019c17.173 17.344 39.253 26.56 62.784 26.56 23.509 0 45.589-9.216 62.144-25.92l89.621-95.275c20.843 81.813 94.4 142.528 181.952 142.528 103.659 0 188.011-85.035 188.011-189.525 0-88.277-60.224-162.432-141.376-183.424zM827.691 917.333c-80.341 0-145.707-65.877-145.707-146.859 0-0.128-0.064-0.213-0.064-0.341-0.021-1.408-0.533-2.731-0.832-4.117-0.299-1.365-0.363-2.773-0.896-4.011-0.128-0.32-0.427-0.576-0.576-0.896-1.088-2.197-2.411-4.245-4.139-5.931-0.064-0.043-0.064-0.107-0.128-0.171-0.533-0.512-1.237-0.704-1.813-1.152-1.557-1.216-3.115-2.389-4.971-3.136-1.429-0.576-2.923-0.661-4.416-0.896-1.131-0.192-2.155-0.683-3.328-0.683-0.107 0-0.213 0.064-0.32 0.064-1.707 0.021-3.328 0.576-4.992 1.024-1.024 0.256-2.112 0.277-3.072 0.683-0.704 0.299-1.28 0.939-1.963 1.344-1.707 0.981-3.435 1.963-4.8 3.392-0.064 0.064-0.171 0.085-0.235 0.171l-119.659 127.168c-16.341 16.491-46.912 16.875-64.021-0.384l-71.893-79.019c-8.107-8.192-11.499-16.256-10.219-23.36 1.301-7.104 7.36-13.419 17.045-17.792 4.629-1.856 132.309-54.507 132.309-160.64 0-110.144-89.088-196.416-202.816-196.416-105.365 0-156.245 127.381-158.357 132.821-3.947 8.811-10.219 14.891-17.259 16.213-7.040 1.365-15.083-2.112-22.571-9.664l-72-77.696c-18.219-18.432-18.219-47.595-0.469-65.493l406.208-409.493c17.771-17.899 46.699-17.877 64.448 0.021l412.885 409.6c17.643 17.771 17.643 46.933-0.128 64.853l-125.824 120.213c-0.064 0.064-0.085 0.171-0.149 0.235-1.344 1.323-2.261 2.965-3.221 4.608-0.448 0.768-1.131 1.408-1.493 2.219-0.341 0.811-0.32 1.771-0.576 2.645-0.512 1.813-1.067 3.605-1.088 5.483-0.021 0.107-0.064 0.192-0.064 0.299 0 1.067 0.448 1.963 0.597 2.987 0.235 1.664 0.363 3.307 0.981 4.864 0.64 1.621 1.685 2.923 2.667 4.309 0.576 0.811 0.853 1.771 1.557 2.517 0.064 0.064 0.171 0.085 0.235 0.149 1.237 1.301 2.816 2.155 4.331 3.093 0.853 0.512 1.557 1.28 2.453 1.664 0.725 0.299 1.557 0.277 2.325 0.512 1.899 0.576 3.776 1.152 5.739 1.173 0.107 0 0.171 0.064 0.277 0.064 80.341 0 145.685 65.899 145.685 146.901 0 80.981-65.344 146.859-145.685 146.859z" />
<glyph unicode="&#xe925;" glyph-name="speach" d="M960 192h-565.739l-164.267-205.312c-4.139-5.184-10.304-8.021-16.661-8.021-2.347 0-4.757 0.405-7.061 1.195-8.533 3.008-14.272 11.072-14.272 20.139v192h-128c-35.285 0-64 28.715-64 64v597.333c0 35.285 28.715 64 64 64h896c35.285 0 64-28.715 64-64v-597.333c0-35.285-28.715-64-64-64zM981.333 853.333c0 11.755-9.557 21.333-21.333 21.333h-896c-11.776 0-21.333-9.579-21.333-21.333v-597.333c0-11.755 9.557-21.333 21.333-21.333h149.333c11.797 0 21.333-9.557 21.333-21.333v-152.512l132.672 165.845c0.256 0.299 0.619 0.427 0.896 0.725 1.003 1.152 2.219 2.005 3.477 2.901 1.024 0.747 1.963 1.557 3.072 2.091 1.216 0.597 2.539 0.853 3.861 1.195 1.408 0.384 2.731 0.768 4.181 0.853 0.405 0.021 0.768 0.235 1.173 0.235h576c11.776 0 21.333 9.579 21.333 21.333v597.333zM810.667 533.333h-597.333c-11.797 0-21.333 9.557-21.333 21.333s9.536 21.333 21.333 21.333h597.333c11.797 0 21.333-9.557 21.333-21.333s-9.536-21.333-21.333-21.333zM810.667 661.333h-597.333c-11.797 0-21.333 9.557-21.333 21.333s9.536 21.333 21.333 21.333h597.333c11.797 0 21.333-9.557 21.333-21.333s-9.536-21.333-21.333-21.333zM213.333 448h384c11.797 0 21.333-9.557 21.333-21.333s-9.536-21.333-21.333-21.333h-384c-11.797 0-21.333 9.557-21.333 21.333s9.536 21.333 21.333 21.333z" />
<glyph unicode="&#xe926;" glyph-name="vector" horiz-adv-x="1023" d="M1006.93 289.757c-10.015-10.122-23.418-15.719-37.657-15.719-14.218 0-27.621 5.597-37.679 15.719-15.398 15.548-19.301 38.258-11.816 57.473l-100.534 101.371c25.284-109.262 8.020-249.749-52.433-331.819l36.499-36.8c8.256-8.321 8.256-21.767 0-30.109l-106.496-107.418c-4.010-4.032-9.436-6.305-15.119-6.305-5.661 0-11.109 2.273-15.097 6.305l-106.496 107.418c-8.256 8.342-8.256 21.788 0 30.109l106.496 107.397c7.999 8.042 22.217 8.042 30.216 0l39.523-39.866c68.967 100.942 68.71 306.728-1.758 385.71l-37.765-38.086c-4.010-4.032-9.436-6.305-15.119-6.305-5.661 0-11.109 2.273-15.097 6.305l-106.496 107.418c-8.256 8.342-8.256 21.788 0 30.109l37.958 38.279c-79.69 73.042-282.538 75.744-386.568-21.445l38.001-38.322c8.256-8.321 8.256-21.767 0-30.109l-106.496-107.418c-4.010-4.032-9.436-6.283-15.119-6.283-5.661 0-11.109 2.252-15.097 6.283l-106.496 107.418c-8.256 8.342-8.256 21.788 0 30.109l106.496 107.397c7.999 8.063 22.217 8.063 30.216 0l38.451-38.773c85.094 80.29 224.508 101.371 332.591 76.58l-100.534 101.371c-6.090-2.38-12.61-3.731-19.343-3.731-14.218 0-27.621 5.597-37.679 15.719-20.737 20.909-20.716 54.856-0.021 75.679 20.201 20.266 55.285 20.244 75.379 0 15.419-15.483 19.343-38.236 11.816-57.473l184.792-186.357 38.151 38.472c7.999 8.042 22.217 8.042 30.216 0l106.496-107.397c8.256-8.321 8.256-21.767 0-30.109l-38.322-38.665 185.156-186.7c19.108 7.034 42.032 3.174 56.808-11.752 20.716-20.866 20.716-54.813-0.021-75.679zM681.694 142.044l-76.452-77.116 76.452-77.116 76.473 77.116-76.473 77.116zM127.877 673.237l-76.452-77.116 76.452-77.116 76.473 77.116-76.473 77.116zM681.694 694.725l-76.452-77.116 76.452-77.116 76.473 77.116-76.473 77.116z" />
<glyph unicode="&#xe927;" glyph-name="wallet" d="M934.848-29.355h-848.427c-47.723 0-86.528 38.891-86.528 86.699v592.021c0 47.829 37.717 89.301 85.44 89.301h43.499v113.643c0 23.595 9.728 45.141 26.688 59.093 16.875 13.909 39.765 19.371 62.784 14.848l719.339-95.787c75.712-16.619 82.965-63.424 83.648-71.189 0-0.064 0-0.149 0.021-0.213 0.021-0.384 0.043-0.704 0.043-0.811v-14.72c1.408-1.301 2.645-2.624 2.645-4.864v-682.667c0-47.808-41.451-85.355-89.152-85.355zM930.24 788.608l-718.805 95.68c-11.904 2.283-21.717 0.171-28.843-5.696-7.211-5.931-11.179-15.275-11.179-26.283v-113.643h724.587c39.445 0 72.171 6.848 81.685 21.675-2.773 6.080-12.651 20.608-47.445 28.267zM981.333 696c-19.776-9.131-54.357 0-85.333 0h-810.667c-24.256 0-42.88-22.272-42.88-46.635v-592.021c0-24.341 19.712-44.16 43.968-44.16h848.427c24.235 0 46.485 18.453 46.485 42.816v640zM170.133 288.085c-35.2 0-63.851 28.693-63.851 63.957 0 35.243 28.651 63.936 63.851 63.936s63.851-28.693 63.851-63.936c0-35.264-28.651-63.957-63.851-63.957zM170.133 373.44c-11.733 0-21.269-9.6-21.269-21.397s9.536-21.419 21.269-21.419c11.755 0 21.291 9.621 21.291 21.419s-9.536 21.397-21.291 21.397z" />
<glyph unicode="&#xe928;" glyph-name="actual-size" horiz-adv-x="1022" d="M711.281 618.66h161.532c11.778 0 21.29-9.555 21.29-21.332s-7.952-20.071-19.729-20.071h-207.981c-2.138-0.684-4.296-1.261-6.519-1.261-5.451 0-10.901 2.073-15.048 6.242-5.045 5.066-6.648 11.949-5.579 18.511v211.636c0 11.778 8.849 19.601 20.627 19.601s21.29-9.555 21.29-21.332v-161.832l304.34 304.917c8.315 8.336 21.803 8.336 30.118 0s8.315-21.824 0-30.16l-304.34-304.917zM383.129 85.306c0-11.778-9.533-21.332-21.311-21.332-11.756 0-21.29 9.555-21.29 21.332v161.853l-304.34-304.939c-4.168-4.147-9.597-6.242-15.048-6.242s-10.901 2.095-15.070 6.242c-8.315 8.336-8.315 21.845 0 30.182l304.361 304.917h-161.554c-11.756 0-21.29 9.555-21.29 21.332s9.533 21.332 21.29 21.332h212.94c2.779 0 5.536-0.577 8.144-1.646 5.216-2.159 9.362-6.327 11.521-11.543 1.069-2.608 1.646-5.365 1.646-8.144v-213.346zM361.818 575.995c-2.202 0-4.382 0.577-6.498 1.261h-207.703c-11.778 0-20.029 8.294-20.029 20.071s9.533 21.332 21.29 21.332h161.554l-304.361 304.917c-8.315 8.336-8.315 21.824 0 30.16s21.803 8.336 30.118 0l304.34-304.917v161.832c0 11.778 9.533 21.332 21.29 21.332 11.778 0 21.311-9.555 21.311-21.332v-213.324c0-5.472-2.095-10.923-6.242-15.091-4.168-4.168-9.619-6.242-15.070-6.242zM651.794 318.381c2.586 1.047 5.322 1.603 8.080 1.603h212.94c11.778 0 21.29-9.555 21.29-21.332s-9.512-21.332-21.29-21.332h-161.532l304.34-304.917c8.315-8.336 8.315-21.845 0-30.182-4.168-4.147-9.597-6.242-15.048-6.242s-10.901 2.095-15.070 6.242l-304.34 304.939 0.021-161.853c0-11.778-9.512-21.332-21.29-21.332-11.756 0-20.648 9.875-20.648 21.653v209.605c-1.069 6.541 0.534 13.445 5.579 18.511 2.009 2.009 4.382 3.57 6.968 4.638z" />
<glyph unicode="&#xe929;" glyph-name="bar-chart" horiz-adv-x="981" d="M960-64h-213.333c-11.797 0-21.333 9.557-21.333 21.333v981.333c0 11.776 9.536 21.333 21.333 21.333h213.333c11.797 0 21.333-9.557 21.333-21.333v-981.333c0-11.776-9.536-21.333-21.333-21.333zM938.667 917.333h-170.667v-938.667h170.667v938.667zM597.333-64h-213.333c-11.776 0-21.333 9.557-21.333 21.333v469.333c0 11.776 9.557 21.333 21.333 21.333h213.333c11.797 0 21.333-9.557 21.333-21.333v-469.333c0-11.776-9.536-21.333-21.333-21.333zM576 405.333h-170.667v-426.667h170.667v426.667zM234.667-64h-213.333c-11.776 0-21.333 9.557-21.333 21.333v640c0 11.776 9.557 21.333 21.333 21.333h213.333c11.776 0 21.333-9.557 21.333-21.333v-640c0-11.776-9.557-21.333-21.333-21.333zM213.333 576h-170.667v-597.333h170.667v597.333z" />
<glyph unicode="&#xe92a;" glyph-name="bulb" d="M687.883 320.111c-16.362-14.759-20.079-46.614-20.079-56.609v-206.625c0-1.158-0.089-2.271-0.267-3.406-6.278-40.626-46.859-117.471-155.537-117.471-108.655 0-149.259 76.845-155.537 117.471-0.178 1.113-0.267 2.248-0.267 3.406v206.559c-0.089 10.618-3.918 41.427-20.391 56.943-103.112 77.802-157.718 179.267-157.718 293.621 0 190.776 149.793 346.001 333.913 346.001s333.913-155.225 333.913-346.001c0-114.488-54.695-216.064-158.030-293.888zM512-19.478c90.913 0 108.633 65.247 111.282 78.358v98.304c-37.042-15.293-73.261-21.059-106.251-21.059-48.373 0-89.355 11.843-116.313 22.194v-99.462c2.56-12.755 20.146-78.336 111.282-78.336zM512 915.478c-159.588 0-289.391-135.235-289.391-301.479 0-126.954 77.045-211.167 141.69-259.473 0.356-0.267 0.512-0.646 0.846-0.935 0.334-0.267 0.735-0.356 1.069-0.668 33.525-31.41 34.504-83.545 34.504-89.4 0 0 0 0 0 0s0 0 0 0v-57.077c31.677-14.714 125.863-49.397 222.564-0.111v57.188c0 0 0 0 0 0s0 0 0 0c0 5.988 1.002 59.281 34.883 89.734 0.267 0.223 0.601 0.289 0.846 0.49 0.289 0.223 0.423 0.557 0.712 0.779 64.623 48.306 141.668 132.497 141.668 259.473 0 166.244-129.825 301.479-289.391 301.479z" />
<glyph unicode="&#xe92b;" glyph-name="calendar" d="M960-64h-896c-35.285 0-64 28.715-64 64v768c0 35.285 28.715 64 64 64h213.333v106.667c0 11.776 9.557 21.333 21.333 21.333s21.333-9.557 21.333-21.333v-106.667h384v106.667c0 11.776 9.557 21.333 21.333 21.333s21.333-9.557 21.333-21.333v-106.667h213.333c35.285 0 64-28.715 64-64v-768c0-35.285-28.715-64-64-64zM981.333 768c0 11.755-9.579 21.333-21.333 21.333h-213.333v-64c0-11.776-9.557-21.333-21.333-21.333s-21.333 9.557-21.333 21.333v64h-384v-64c0-11.776-9.557-21.333-21.333-21.333s-21.333 9.557-21.333 21.333v64h-213.333c-11.755 0-21.333-9.579-21.333-21.333v-768c0-11.755 9.579-21.333 21.333-21.333h896c11.755 0 21.333 9.579 21.333 21.333v768zM832 192h-85.333c-11.776 0-21.333 9.557-21.333 21.333v85.333c0 11.776 9.557 21.333 21.333 21.333h85.333c11.776 0 21.333-9.557 21.333-21.333v-85.333c0-11.776-9.557-21.333-21.333-21.333zM810.667 277.333h-42.667v-42.667h42.667v42.667zM832 448h-85.333c-11.776 0-21.333 9.557-21.333 21.333v85.333c0 11.776 9.557 21.333 21.333 21.333h85.333c11.776 0 21.333-9.557 21.333-21.333v-85.333c0-11.776-9.557-21.333-21.333-21.333zM810.667 533.333h-42.667v-42.667h42.667v42.667zM554.667 192h-85.333c-11.776 0-21.333 9.557-21.333 21.333v85.333c0 11.776 9.557 21.333 21.333 21.333h85.333c11.776 0 21.333-9.557 21.333-21.333v-85.333c0-11.776-9.557-21.333-21.333-21.333zM533.333 277.333h-42.667v-42.667h42.667v42.667zM554.667 448h-85.333c-11.776 0-21.333 9.557-21.333 21.333v85.333c0 11.776 9.557 21.333 21.333 21.333h85.333c11.776 0 21.333-9.557 21.333-21.333v-85.333c0-11.776-9.557-21.333-21.333-21.333zM533.333 533.333h-42.667v-42.667h42.667v42.667zM277.333 192h-85.333c-11.776 0-21.333 9.557-21.333 21.333v85.333c0 11.776 9.557 21.333 21.333 21.333h85.333c11.776 0 21.333-9.557 21.333-21.333v-85.333c0-11.776-9.557-21.333-21.333-21.333zM256 277.333h-42.667v-42.667h42.667v42.667zM277.333 448h-85.333c-11.776 0-21.333 9.557-21.333 21.333v85.333c0 11.776 9.557 21.333 21.333 21.333h85.333c11.776 0 21.333-9.557 21.333-21.333v-85.333c0-11.776-9.557-21.333-21.333-21.333zM256 533.333h-42.667v-42.667h42.667v42.667z" />
<glyph unicode="&#xe92c;" glyph-name="config" d="M938.667 535.488v-578.155c0-11.797-9.536-21.333-21.333-21.333s-21.333 9.536-21.333 21.333v578.155c-48.619 9.92-85.333 53.013-85.333 104.512s36.715 94.592 85.333 104.512v194.155c0 11.797 9.536 21.333 21.333 21.333s21.333-9.536 21.333-21.333v-194.155c48.619-9.92 85.333-53.013 85.333-104.512s-36.715-94.592-85.333-104.512zM917.333 704c-35.285 0-64-28.715-64-64s28.715-64 64-64c35.285 0 64 28.715 64 64s-28.715 64-64 64zM533.333 151.488v-194.155c0-11.797-9.536-21.333-21.333-21.333s-21.333 9.536-21.333 21.333v194.155c-48.619 9.92-85.333 53.013-85.333 104.512s36.715 94.592 85.333 104.512v578.155c0 11.797 9.536 21.333 21.333 21.333s21.333-9.536 21.333-21.333v-578.155c48.619-9.92 85.333-53.013 85.333-104.512s-36.715-94.592-85.333-104.512zM512 320c-35.285 0-64-28.715-64-64s28.715-64 64-64c35.285 0 64 28.715 64 64s-28.715 64-64 64zM128 343.488v-386.155c0-11.797-9.536-21.333-21.333-21.333s-21.333 9.536-21.333 21.333v386.155c-48.619 9.92-85.333 53.013-85.333 104.512s36.715 94.592 85.333 104.512v386.155c0 11.797 9.536 21.333 21.333 21.333s21.333-9.536 21.333-21.333v-386.155c48.619-9.92 85.333-53.013 85.333-104.512s-36.715-94.592-85.333-104.512zM106.667 512c-35.285 0-64-28.715-64-64s28.715-64 64-64c35.285 0 64 28.715 64 64s-28.715 64-64 64z" />
<glyph unicode="&#xe92d;" glyph-name="cursor" horiz-adv-x="1023" d="M575.399-63.979c-0.619 0-1.26 0.021-1.88 0.064-9.142 0.812-16.726 7.391-18.862 16.32l-103.515 435.101-434.78 103.579c-8.929 2.136-15.487 9.741-16.298 18.883s4.315 17.751 12.731 21.425l980.338 426.535c7.968 3.482 17.388 1.73 23.561-4.486 6.195-6.173 7.968-15.551 4.486-23.561l-426.236-981.043c-3.396-7.818-11.129-12.817-19.545-12.817zM88.392 517.765l385.372-91.831c7.839-1.837 13.949-7.968 15.807-15.807l91.745-385.65 379.199 872.743-872.124-379.455z" />
<glyph unicode="&#xe92e;" glyph-name="dislike" d="M489.668-63.978c-2.179 0-4.445 0.131-6.689 0.479-36.995 5.534-123.054 35.644-123.054 195.257 0 71.397 19.892 153.687 31.657 196.15h-207.393c-79.611 0-129.068 37.844-129.068 98.762 0 30.851 11.155 52.878 26.101 68.107-22.506 12.114-48.564 36.864-48.564 86.517 0 42.42 20.545 68.368 47.496 82.312-14.401 15.404-25.034 37.561-25.034 68.455 0 46.712 24.315 73.815 54.86 87.018-6.819 11.090-11.308 25.469-11.308 43.749 0 82.138 65.994 97.171 195.933 97.171h195.954c73.183 0 125.494-19.783 171.662-37.213 38.999-14.728 72.639-27.43 113.62-27.43 64.708 0 128.654-0.741 128.654-0.741 3.464-0.044 6.863-0.915 9.913-2.549 7.887-4.14 76.931-45.557 76.931-215.41 0-165.365-44.424-246.98-46.32-250.379-3.072-5.534-8.41-9.456-14.597-10.741-1.59-0.305-159.33-33.77-250.292-124.841-85.994-86.081-138.131-222.339-145.168-312.429-1.83-23.705-21.722-42.245-45.296-42.245zM137.826 633.17c-23.007 0-61.614-6.732-61.614-51.875 0-23.813 8.432-39.261 26.537-48.586 16.014-8.257 34.206-8.65 37.692-8.65 11.504 0 21.896-8.933 22.637-20.436 0.697-11.504-6.754-21.548-18.171-22.964-7.582-1.089-46.233-8.846-46.233-53.989 0-49.784 59.806-55.165 85.515-55.165h236.522c6.95 0 13.486-3.333 17.604-8.955 4.074-5.643 5.251-12.898 3.116-19.521-0.37-1.198-37.953-118.958-37.953-211.271 0-89.807 30.524-143.861 85.951-152.14l0.24-0.022c0.741 0 1.765 0.784 1.874 2.048 7.429 95.058 59.98 241.947 157.805 339.881 86.909 87.018 222.339 124.797 261.556 134.275 10.175 23.443 36.886 96.692 36.886 220.857 0 121.725-39.021 164.494-50.546 174.45-18.018 0.153-69.479 0.654-121.398 0.654-48.912 0-87.803 14.685-129.002 30.241-44.751 16.929-91.049 34.402-156.28 34.402h-195.954c-152.402 0-152.402-24.816-152.402-53.575 0-30.088 21.787-33.465 24.271-33.748 11.678-1.351 20.175-11.722 19.216-23.443s-10.24-21.003-22.789-19.979c-0.022 0-0.044 0-0.087 0-20.219 0-64.142-5.294-64.142-53.597 0-49.697 44.141-55.361 46.015-55.557 11.765-1.351 20.284-11.852 19.216-23.683-1.111-11.787-11.003-20.698-23.247-19.696l-2.832 0.044z" />
<glyph unicode="&#xe92f;" glyph-name="end" horiz-adv-x="853" d="M831.829-63.765c-11.776 0-21.333 9.536-21.333 21.312v427.413l-750.464-442.24c-7.595-4.459-15.296-6.72-22.976-6.72-18.411 0-37.056 14.507-37.056 42.261v939.669c0 28.757 18.837 41.856 36.352 41.856 7.915 0 15.915-2.475 23.723-7.339l750.421-472v458.219c0 11.797 9.557 21.333 21.333 21.333s21.333-9.536 21.333-21.333v-981.12c0-11.776-9.557-21.312-21.333-21.312zM42.645 913.003v-930.773l764.224 450.091-764.224 480.683z" />
<glyph unicode="&#xe930;" glyph-name="forward" d="M431.936 64c-0.021 0-0.021 0-0.021 0-26.667 0-26.667 28.181-26.667 41.749v172.864l-344.768-207.424c-7.68-4.736-15.723-7.189-23.701-7.189-17.707 0-36.779 13.227-36.779 42.261v683.904c0 28.736 18.688 41.835 36.053 41.835 8.256 0 16.576-2.731 24.683-8.085l344.512-206.165v172.416c0 8.405 0 14.080 0.939 19.285 3.051 16.64 15.488 22.549 25.216 22.549 8.448 0 15.765-4.075 21.803-8.064l549.483-351.616c13.717-9.045 21.312-22.208 21.099-36.331-0.192-14.080-8.128-26.987-21.803-35.456l-549.056-329.344c-5.653-3.477-12.757-7.189-20.992-7.189zM42.645 785.045v-674.773l372.949 224.341c6.592 3.925 14.848 4.075 21.483 0.277 6.699-3.776 10.837-10.88 10.837-18.56v-198.421l531.328 318.763-531.328 339.989v-196.544c0-7.68-4.117-14.763-10.816-18.56-6.677-3.776-14.869-3.669-21.461 0.256l-372.992 223.232z" />
<glyph unicode="&#xe931;" glyph-name="full-screen" horiz-adv-x="1022" d="M1020.238-50.812c-2.159-5.216-6.306-9.384-11.521-11.543-2.586-1.069-5.344-1.646-8.123-1.646h-212.94c-11.778 0-21.29 9.555-21.29 21.332s9.512 21.332 21.29 21.332l161.468 0.064-304.276 304.853c-8.315 8.336-8.315 21.845 0 30.182 8.315 8.315 21.781 8.315 30.096 0l306.307-306.884v164.247c0 11.778 7.567 20.884 19.345 20.884s21.29-9.555 21.29-21.332v-213.346c0-2.779-0.556-5.536-1.646-8.144zM1000.594 704.011c-11.778 0-19.345 11.094-19.345 22.871v162.238l-306.307-306.862c-4.147-4.168-9.597-6.242-15.048-6.242s-10.901 2.073-15.048 6.242c-8.315 8.336-8.315 21.824 0 30.16l306.264 306.841h-162.238c-11.778 0-22.508 7.631-22.508 19.409 0 11.799 9.512 21.332 21.29 21.332h212.94c2.779 0 5.536-0.556 8.123-1.646 5.216-2.159 9.362-6.306 11.521-11.521 1.090-2.608 1.646-5.387 1.646-8.165v-213.324c0-11.778-9.512-21.332-21.29-21.332zM72.633-21.271l161.468-0.064c11.778 0 21.29-9.555 21.29-21.332s-9.512-21.332-21.29-21.332h-212.94c-2.779 0-5.536 0.577-8.144 1.646-5.194 2.159-9.362 6.327-11.5 11.543-1.069 2.544-1.603 5.258-1.625 7.973 0 0.064-0.021 0.107-0.021 0.171v213.346c0 11.778 9.512 21.332 21.29 21.332s19.58-9.106 19.58-20.884v-164.012l306.050 306.649c8.315 8.315 21.803 8.315 30.118 0 8.315-8.336 8.315-21.845 0-30.182l-304.276-304.853zM361.861 576.016c-5.451 0-10.901 2.073-15.070 6.242l-306.050 306.627v-162.003c0-11.778-9.597-21.375-21.375-21.375s-19.494 8.058-19.494 19.836v213.324c0 0.064 0.021 0.107 0.021 0.15 0.021 2.736 0.556 5.451 1.625 7.994 2.138 5.237 6.306 9.384 11.5 11.543 2.608 1.090 5.365 1.646 8.144 1.646h212.94c11.778 0 21.29-9.533 21.29-21.332 0-11.778-10.495-19.409-22.273-19.409h-162.473l306.264-306.841c8.315-8.336 8.315-21.824 0-30.16-4.168-4.168-9.597-6.242-15.048-6.242z" />
<glyph unicode="&#xe932;" glyph-name="graph" d="M949.333 608c-13.696 0-26.389 3.968-37.44 10.453l-210.496-194.624c1.536-5.952 2.603-12.075 2.603-18.496 0-41.173-33.493-74.667-74.667-74.667s-74.667 33.493-74.667 74.667c0 1.344 0.32 2.581 0.405 3.904l-148.779 73.173c-13.632-14.528-32.853-23.744-54.293-23.744-12.501 0-24.107 3.392-34.475 8.832-0.256-0.341-0.32-0.768-0.597-1.088l-178.155-215.445c6.549-11.093 10.56-23.851 10.56-37.632 0-41.173-33.493-74.667-74.667-74.667s-74.667 33.493-74.667 74.667c0 41.173 33.493 74.667 74.667 74.667 11.819 0 22.869-3.008 32.811-7.936l176.576 213.525c1.003 1.195 2.304 1.877 3.456 2.795-6.293 10.944-10.176 23.445-10.176 36.949 0 41.173 33.493 74.667 74.667 74.667s74.667-33.493 74.667-74.667c0-4.373-0.576-8.597-1.28-12.757l144.192-70.912c13.632 18.304 35.243 30.336 59.755 30.336 18.987 0 36.16-7.339 49.344-19.072l204.053 188.672c-4.992 10.005-8.064 21.141-8.064 33.067 0 41.173 33.493 74.667 74.667 74.667s74.667-33.493 74.667-74.667c0-41.173-33.493-74.667-74.667-74.667zM74.667 245.333c-17.643 0-32-14.357-32-32s14.357-32 32-32c17.643 0 32 14.357 32 32s-14.357 32-32 32zM352 565.333c-17.643 0-32-14.357-32-32s14.357-32 32-32c17.643 0 32 14.357 32 32s-14.357 32-32 32zM629.333 437.333c-17.643 0-32-14.357-32-32s14.357-32 32-32c17.643 0 32 14.357 32 32s-14.357 32-32 32zM949.333 714.667c-17.643 0-32-14.357-32-32s14.357-32 32-32c17.643 0 32 14.357 32 32s-14.357 32-32 32z" />
<glyph unicode="&#xe933;" glyph-name="grid" d="M981.333-64h-341.333c-23.531 0-42.667 19.136-42.667 42.667v341.333c0 23.531 19.136 42.667 42.667 42.667h341.333c23.531 0 42.667-19.136 42.667-42.667v-341.333c0-23.531-19.136-42.667-42.667-42.667zM640 320v-341.333h341.269l0.064 341.333h-341.333zM981.333 533.333h-341.333c-23.531 0-42.667 19.136-42.667 42.667v341.333c0 23.531 19.136 42.667 42.667 42.667h341.333c23.531 0 42.667-19.136 42.667-42.667v-341.333c0-23.531-19.136-42.667-42.667-42.667zM640 917.333v-341.333h341.269l0.064 341.333h-341.333zM384-64h-341.333c-23.531 0-42.667 19.136-42.667 42.667v341.333c0 23.531 19.136 42.667 42.667 42.667h341.333c23.531 0 42.667-19.136 42.667-42.667v-341.333c0-23.531-19.136-42.667-42.667-42.667zM42.667 320v-341.333h341.269l0.064 341.333h-341.333zM384 533.333h-341.333c-23.531 0-42.667 19.136-42.667 42.667v341.333c0 23.531 19.136 42.667 42.667 42.667h341.333c23.531 0 42.667-19.136 42.667-42.667v-341.333c0-23.531-19.136-42.667-42.667-42.667zM42.667 917.333v-341.333h341.269l0.064 341.333h-341.333z" />
<glyph unicode="&#xe934;" glyph-name="help" d="M512-64c-282.304 0-512 229.696-512 512 0 39.253 4.864 77.333 13.269 114.069 0.128 0.384 0.128 0.811 0.299 1.173 43.883 189.76 193.301 339.221 383.061 383.168 1.067 0.469 2.283 0.576 3.456 0.875 36.075 8.085 73.429 12.715 111.915 12.715 38.507 0 75.904-4.629 112-12.715 1.131-0.299 2.304-0.405 3.349-0.875 189.76-43.925 339.2-193.387 383.083-383.168 0.171-0.363 0.171-0.789 0.299-1.173 8.405-36.736 13.269-74.816 13.269-114.069 0-282.304-229.696-512-512-512zM963.179 320.171h-229.717c-22.464-38.763-54.72-71.040-93.461-93.525v-229.781c155.989 44.331 278.891 167.275 323.179 323.307zM512 661.333c-117.632 0-213.333-95.701-213.333-213.333 0-82.112 46.72-153.429 114.901-189.077 0.085-0.021 0.149-0.085 0.235-0.107 29.419-15.339 62.784-24.149 98.197-24.149 35.456 0 68.821 8.811 98.283 24.171 0.043 0.043 0.085 0.064 0.149 0.085 68.181 35.648 114.901 106.965 114.901 189.077 0 117.632-95.701 213.333-213.333 213.333zM512-21.333c29.184 0 57.621 3.029 85.333 8.149v220.117c-26.731-9.493-55.381-14.933-85.333-14.933s-58.581 5.44-85.312 14.933v-220.117c27.712-5.12 56.149-8.149 85.312-8.149zM384.021-3.136v229.76c-38.741 22.485-70.997 54.763-93.461 93.504l-229.739 0.021c44.288-156.032 167.211-278.955 323.2-323.285zM42.667 448c0-29.12 3.029-57.515 8.128-85.184l220.096-0.021c-9.472 26.709-14.891 55.296-14.891 85.205 0 29.995 5.461 58.688 14.976 85.461h-220.139c-5.141-27.755-8.171-56.235-8.171-85.461zM60.885 576.128h229.824c22.464 38.613 54.656 70.805 93.291 93.227v229.781c-155.904-44.309-278.763-167.125-323.115-323.008zM512 917.333c-29.184 0-57.621-3.029-85.333-8.149v-220.117c26.731 9.493 55.381 14.933 85.333 14.933s58.581-5.44 85.312-14.933v220.117c-27.712 5.12-56.149 8.149-85.312 8.149zM639.979 899.136v-229.76c38.656-22.443 70.848-54.613 93.312-93.248h229.824c-44.373 155.883-167.232 278.72-323.136 323.008zM973.163 533.461h-220.139c9.515-26.773 14.976-55.467 14.976-85.461 0-29.888-5.419-58.475-14.869-85.163h220.075c5.099 27.669 8.128 56.043 8.128 85.163 0 29.227-3.029 57.707-8.171 85.461z" />
<glyph unicode="&#xe935;" glyph-name="home" horiz-adv-x="1023" d="M1015.102 368.315c-4.064-3.593-9.090-5.347-14.117-5.347-5.882 0-11.743 2.417-15.956 7.187l-47.911 54.328v-445.833c0-23.549-19.1-42.693-42.586-42.693h-212.928c-23.464 0-42.564 19.143-42.564 42.693v320.258l-277.437 0.706v-320.836c0-23.549-18.459-42.821-41.944-42.821h-191.624c-23.485 0-44.489 19.272-44.489 42.821v443.544l-46.008-52.168c-7.786-8.791-21.239-9.668-30.073-1.839-8.791 7.807-9.625 21.303-1.818 30.137l489.681 555.11c8.106 9.155 23.806 9.155 31.912 0l403.226-457.105c0.342-0.321 0.599-0.684 0.92-1.027l85.556-96.978c7.786-8.834 6.951-22.33-1.839-30.137zM511.283 907.19l-384.96-436.379c0-0.021 0-0.064 0-0.086v-491.948l193.335-0.128v320.258c0 23.549 19.1 42.693 42.586 42.693h276.795c23.485 0 42.564-19.143 42.564-42.693v-320.258l214.725 0.128v491.948l-385.045 436.465z" />
<glyph unicode="&#xe936;" glyph-name="left" d="M512-64c-282.304 0-512 229.696-512 512s229.696 512 512 512c282.304 0 512-229.696 512-512s-229.696-512-512-512zM512 917.333c-258.795 0-469.333-210.539-469.333-469.333s210.539-469.333 469.333-469.333c258.795 0 469.333 210.539 469.333 469.333s-210.539 469.333-469.333 469.333zM746.667 426.667h-417.835l91.584-91.584c8.341-8.341 8.341-21.824 0-30.165-4.16-4.16-9.621-6.251-15.083-6.251s-10.923 2.091-15.083 6.251l-128 128c-1.963 1.963-3.52 4.309-4.608 6.933-2.155 5.205-2.155 11.093 0 16.299 1.088 2.624 2.645 4.971 4.608 6.933l128 128c8.341 8.341 21.824 8.341 30.165 0s8.341-21.824 0-30.165l-91.584-91.584h417.835c11.776 0 21.333-9.557 21.333-21.333s-9.557-21.333-21.333-21.333z" />
<glyph unicode="&#xe937;" glyph-name="like" d="M729.393-60.492h-195.954c-73.183 0-125.494 19.696-171.662 37.082-38.977 14.685-72.639 27.343-113.62 27.343-64.686 0-128.654 0.741-128.654 0.741-3.464 0.044-6.863 0.915-9.913 2.527-7.887 4.14-76.931 45.448-76.931 214.713 0 164.842 44.424 246.152 46.32 249.551 3.072 5.512 8.41 9.412 14.619 10.676 1.59 0.327 159.308 33.683 250.27 124.427 85.994 85.82 138.131 221.62 145.168 311.405 2.004 25.818 25.513 45.666 51.984 41.635 36.973-5.512 123.054-35.47 123.054-194.604 0-71.157-9.586-151.465-21.351-193.776h196.085c79.611 0 130.070-39.457 130.070-100.178 0-30.764-11.177-52.725-26.123-67.911 28.171-15.404 48.586-43.553 48.586-86.19 0-42.267-20.545-68.15-47.453-82.029 14.38-15.36 24.99-37.452 24.99-68.238 0-46.559-24.315-73.554-54.86-86.735 6.819-11.068 11.329-25.382 11.329-43.596 0-81.876-66.015-96.844-195.954-96.844zM126.867 48.030c18.127-0.153 69.458-0.654 121.29-0.654 48.912 0 87.824-14.641 129.002-30.132 44.751-16.885 91.027-34.293 156.28-34.293h195.954c152.402 0 152.402 24.729 152.402 53.401 0 30.001-21.765 33.334-24.271 33.639-11.656 1.329-20.175 11.678-19.216 23.356s10.676 20.349 22.789 19.935c0.022 0 0.044 0 0.087 0 20.219 0 64.163 5.251 64.163 53.401 0 49.544-44.141 55.165-46.036 55.383-11.765 1.329-20.284 11.809-19.195 23.574 1.089 11.743 11.199 20.458 23.225 19.652l2.832-0.044c23.007 0 61.614 6.71 61.614 51.701 0 51.483-44.925 57.039-64.229 57.039-11.504 0-21.896 8.911-22.615 20.371s6.732 21.482 18.149 22.898c7.582 1.068 46.254 8.802 46.254 53.793 0 49.631-60.83 56.603-86.539 56.603h-239.66c-6.95 0-9.347 1.721-13.443 7.321-4.096 5.621-5.251 12.854-3.137 19.456 0.392 1.177 37.953 118.588 37.953 210.574 0 89.546-30.502 143.382-85.929 151.617-0.806 0.109-2.048-0.741-2.135-2.004-7.429-94.753-59.98-241.163-157.805-338.77-86.909-86.691-222.361-124.383-261.556-133.817-10.196-23.378-36.886-96.365-36.886-220.116 0-121.093 38.607-163.557 50.655-173.884z" />
<glyph unicode="&#xe938;" glyph-name="list" d="M1002.667 426.667h-682.667c-11.776 0-21.333 9.557-21.333 21.333s9.557 21.333 21.333 21.333h682.667c11.776 0 21.333-9.557 21.333-21.333s-9.557-21.333-21.333-21.333zM1002.667 661.333h-682.667c-11.776 0-21.333 9.557-21.333 21.333s9.557 21.333 21.333 21.333h682.667c11.776 0 21.333-9.557 21.333-21.333s-9.557-21.333-21.333-21.333zM106.667 149.333h-85.333c-11.776 0-21.333 9.557-21.333 21.333v85.333c0 11.776 9.557 21.333 21.333 21.333h85.333c11.776 0 21.333-9.557 21.333-21.333v-85.333c0-11.776-9.557-21.333-21.333-21.333zM85.333 234.667h-42.667v-42.667h42.667v42.667zM106.667 384h-85.333c-11.776 0-21.333 9.557-21.333 21.333v85.333c0 11.776 9.557 21.333 21.333 21.333h85.333c11.776 0 21.333-9.557 21.333-21.333v-85.333c0-11.776-9.557-21.333-21.333-21.333zM85.333 469.333h-42.667v-42.667h42.667v42.667zM106.667 618.667h-85.333c-11.776 0-21.333 9.557-21.333 21.333v85.333c0 11.776 9.557 21.333 21.333 21.333h85.333c11.776 0 21.333-9.557 21.333-21.333v-85.333c0-11.776-9.557-21.333-21.333-21.333zM85.333 704h-42.667v-42.667h42.667v42.667zM320 234.667h682.667c11.776 0 21.333-9.557 21.333-21.333s-9.557-21.333-21.333-21.333h-682.667c-11.776 0-21.333 9.557-21.333 21.333s9.557 21.333 21.333 21.333z" />
<glyph unicode="&#xe939;" glyph-name="login" d="M981.333-64h-597.333c-23.509 0-42.667 19.136-42.667 42.667v298.667c0 11.776 9.536 21.333 21.333 21.333s21.333-9.557 21.333-21.333v-298.667h597.333v938.667h-597.333v-298.667c0-11.776-9.536-21.333-21.333-21.333s-21.333 9.557-21.333 21.333v298.667c0 23.531 19.157 42.667 42.667 42.667h597.333c23.531 0 42.667-19.136 42.667-42.667v-938.667c0-23.531-19.136-42.667-42.667-42.667zM519.061 624.149c-8.747 7.872-9.451 21.355-1.579 30.123 7.893 8.768 21.376 9.472 30.123 1.579l213.333-192c0.128-0.107 0.171-0.299 0.32-0.427 1.536-1.472 2.667-3.264 3.733-5.141 0.341-0.619 0.917-1.131 1.195-1.792 1.152-2.603 1.813-5.461 1.813-8.491s-0.661-5.888-1.813-8.491c-0.277-0.661-0.853-1.173-1.195-1.792-1.067-1.877-2.197-3.669-3.733-5.141-0.149-0.128-0.192-0.32-0.32-0.427l-213.333-192c-4.096-3.669-9.195-5.483-14.272-5.483-5.824 0-11.648 2.389-15.851 7.061-7.872 8.768-7.168 22.251 1.579 30.123l172.011 154.816h-669.739c-11.797 0-21.333 9.557-21.333 21.333s9.536 21.333 21.333 21.333h669.739l-172.011 154.816z" />
<glyph unicode="&#xe93a;" glyph-name="logout" d="M981.333-64h-597.333c-23.509 0-42.667 19.136-42.667 42.667v298.667c0 11.776 9.536 21.333 21.333 21.333s21.333-9.557 21.333-21.333v-298.667h597.333v938.667h-597.333v-298.667c0-11.776-9.536-21.333-21.333-21.333s-21.333 9.557-21.333 21.333v298.667c0 23.531 19.157 42.667 42.667 42.667h597.333c23.509 0 42.667-19.136 42.667-42.667v-938.667c0-23.531-19.157-42.667-42.667-42.667zM76.928 469.333h669.739c11.797 0 21.333-9.557 21.333-21.333s-9.536-21.333-21.333-21.333h-669.739l172.011-154.816c8.747-7.872 9.451-21.355 1.579-30.123-4.203-4.672-10.027-7.061-15.851-7.061-5.077 0-10.197 1.792-14.272 5.483l-213.333 192c-0.128 0.107-0.171 0.299-0.32 0.427-1.536 1.472-2.667 3.264-3.733 5.141-0.363 0.64-0.917 1.131-1.195 1.792-1.152 2.603-1.813 5.461-1.813 8.491s0.661 5.888 1.813 8.491c0.277 0.661 0.832 1.152 1.195 1.792 1.067 1.877 2.197 3.669 3.733 5.141 0.149 0.128 0.192 0.32 0.32 0.427l213.333 192c8.747 7.893 22.251 7.211 30.123-1.579 7.872-8.768 7.168-22.251-1.579-30.123l-172.011-154.816z" />
<glyph unicode="&#xe93b;" glyph-name="loop" horiz-adv-x="1229" d="M1124.915 89.6h-1035.264l109.67-109.901c9.984-10.010 9.984-26.189 0-36.198-4.992-4.992-11.52-7.501-18.048-7.501-6.554 0-13.082 2.509-18.074 7.501l-153.267 153.574c-2.381 2.355-4.25 5.197-5.555 8.346-2.586 6.246-2.586 13.312 0 19.558 1.306 3.149 3.174 5.99 5.555 8.346l153.267 153.6c9.984 10.010 26.163 10.010 36.122 0 9.984-10.010 9.984-26.189 0-36.198l-109.67-109.926h1035.264c29.133 0 52.813 22.989 52.813 51.2v665.6c0 28.211-23.68 51.2-52.813 51.2h-1018.598c-29.133 0-55.117-22.989-55.117-51.2v-486.4c0-14.157-9.114-25.6-23.245-25.6-14.106 0-27.955 11.443-27.955 25.6v486.4c0 56.474 49.024 102.4 106.317 102.4h1018.598c57.293 0 103.91-45.926 103.91-102.4v-665.6c0-56.474-46.618-102.4-103.91-102.4z" />
<glyph unicode="&#xe93c;" glyph-name="microphone" horiz-adv-x="640" d="M640 426.667c-0.021-169.259-132.181-307.861-298.667-318.912v-129.088h170.667c11.776 0 21.333-9.536 21.333-21.333s-9.557-21.333-21.333-21.333h-384c-11.776 0-21.333 9.536-21.333 21.333s9.557 21.333 21.333 21.333h170.667v129.088c-166.485 11.051-298.645 149.653-298.667 318.912 0 0 0 0 0 0v128c0 11.797 9.557 21.333 21.333 21.333s21.333-9.536 21.333-21.333v-127.979c0-152.939 124.395-277.355 277.333-277.355s277.333 124.416 277.333 277.355v127.979c0 11.797 9.557 21.333 21.333 21.333s21.333-9.536 21.333-21.333v-128c0 0 0 0 0 0zM320 256.021c-82.347 0-149.333 66.987-149.333 149.312v403.989c0 0.235 0.128 0.427 0.128 0.64 0 0.235-0.128 0.405-0.128 0.64 0 82.368 66.987 149.397 149.333 149.397s149.333-67.029 149.333-149.397c0-0.235-0.128-0.405-0.128-0.64 0-0.213 0.128-0.405 0.128-0.64v-403.989c0-82.325-66.987-149.312-149.333-149.312zM426.667 810.603c0 58.859-47.851 106.731-106.667 106.731s-106.667-47.872-106.667-106.731c0-0.235-0.128-0.405-0.128-0.64 0-0.213 0.128-0.405 0.128-0.64v-403.989c0-58.816 47.851-106.645 106.667-106.645s106.667 47.829 106.667 106.645v403.989c0 0.235 0.128 0.427 0.128 0.64 0 0.235-0.128 0.405-0.128 0.64z" />
<glyph unicode="&#xe93d;" glyph-name="music-note1" horiz-adv-x="767" d="M760.94 603.956c-8.074-8.587-21.553-9.014-30.098-0.983l-304.949 286.258v-782.429c0-0.043-0.021-0.085-0.021-0.128 0-0.15 0.021-0.299 0.021-0.449 0-93.86-95.547-170.225-213.011-170.225-117.442 0-213.011 76.365-213.011 170.225 0 94.308 95.569 171.037 213.011 171.037 70.448 0 132.822-27.705 171.614-70.149v732.851c0 8.502 3.824 14.696 11.62 18.093 7.754 3.332 16.832 1.837 23.027-4.016l340.814-319.944c8.608-8.053 9.036-21.553 0.983-30.14zM212.883 234.604c-93.945 0-170.396-57.589-170.396-128.379 0-70.342 76.451-127.567 170.396-127.567 93.967 0 170.417 57.226 170.417 127.567 0 70.79-76.451 128.379-170.417 128.379z" />
<glyph unicode="&#xe93e;" glyph-name="music-note2" horiz-adv-x="981" d="M980.801 269.902c-4.831-78.853-88.771-141.889-191.564-141.889-105.85 0-191.971 66.84-191.971 149.006 0 82.508 86.121 149.648 191.971 149.648 61.454 0 116.089-22.7 151.272-57.799v543.806l-556.589-119.274v-708.417c0-0.043-0.021-0.086-0.021-0.15-0.107-82.081-86.185-148.814-191.971-148.814-105.871 0-192.013 66.819-192.013 148.964 0 82.551 86.142 149.69 192.013 149.69 60.727 0 114.87-22.166 150.075-56.602v634.309c0 10.068 6.284 17.036 16.117 19.131l597.33 127.995c0.641 0.15 1.24-0.043 1.881 0.043 0.898 0.086 1.646 0.428 2.608 0.428 0.62 0 1.176-0.299 1.796-0.363 1.625-0.128 3.142-0.428 4.681-0.941 1.112-0.363 2.159-0.748 3.185-1.283 1.347-0.705 2.544-1.518 3.719-2.501 0.983-0.812 1.86-1.646 2.693-2.608 0.876-1.047 1.603-2.159 2.287-3.399 0.705-1.261 1.261-2.522 1.689-3.912 0.214-0.663 0.641-1.154 0.791-1.838 0.171-0.77-0.043-1.475 0.043-2.244 0.064-0.77 0.449-1.432 0.449-2.244v-666.457c0-0.812-0.385-1.496-0.47-2.287zM191.928 192.011c-82.337 0-149.348-48.009-149.348-107.026 0-58.611 67.011-106.299 149.348-106.299s149.306 47.688 149.306 106.299c0 59.017-66.968 107.026-149.306 107.026zM789.236 384.003c-82.337 0-149.306-47.987-149.306-106.983 0-58.632 66.968-106.342 149.306-106.342 82.359 0 149.37 47.709 149.37 106.342 0 58.996-67.011 106.983-149.37 106.983z" />
<glyph unicode="&#xe93f;" glyph-name="note" horiz-adv-x="1031" d="M1004.275 775.838c-0.171-0.192-0.406-0.235-0.576-0.427s-0.235-0.448-0.427-0.64l-429.653-426.921c-0.149-0.171-0.384-0.213-0.555-0.363-1.025-0.982-2.327-1.601-3.565-2.37-1.238-0.747-2.37-1.622-3.672-2.092-0.213-0.085-0.363-0.256-0.598-0.342l-193.341-64.020c-2.22-0.747-4.504-1.11-6.788-1.11-5.593 0-11.101 2.177-15.178 6.255-5.764 5.721-7.77 14.174-5.209 21.859l64.447 192.103c0.085 0.213 0.256 0.363 0.342 0.576 0.47 1.281 1.324 2.37 2.049 3.565 0.79 1.281 1.452 2.604 2.455 3.672 0.149 0.171 0.192 0.363 0.363 0.534l429.632 426.9c0.064 0.064 0.149 0.085 0.235 0.149 0.064 0.064 0.085 0.149 0.149 0.213 18.743 17.761 45.597 27.282 72.922 26.663 29.715-0.854 57.872-13.897 79.305-36.717 49.034-51.98 39.193-111.539 7.664-147.487zM965.231 894.165c-17.377 18.508-36.354 22.841-49.184 23.204-15.69 0.384-31.636-5.081-42.011-14.879l-425.704-422.993-49.269-146.847 147.786 48.949 425.235 422.545c17.291 19.96 25.851 55.374-6.852 90.021zM558.441 789.821h-515.576v-811.126h811.020v512.331c0 11.784 9.478 21.347 21.347 21.347s21.347-9.564 21.347-21.347v-533.678c0-11.784-3.992-21.347-15.861-21.347h-859.328c-11.869 0-21.475 9.564-21.475 21.347v853.821c0 11.784 9.606 21.347 21.475 21.347h537.051c11.869 0 21.475-9.564 21.475-21.347s-9.606-21.347-21.475-21.347z" />
<glyph unicode="&#xe940;" glyph-name="pause" horiz-adv-x="683" d="M661.227-64h-213.76c-11.797 0-21.376 9.536-21.376 21.333v981.333c0 11.797 9.579 21.333 21.376 21.333h213.76c11.797 0 21.376-9.536 21.376-21.333v-981.333c0-11.797-9.579-21.333-21.376-21.333zM639.851 917.333h-171.008v-938.667h171.008v938.667zM235.136-64h-213.739c-11.819 0-21.376 9.536-21.376 21.333v981.333c0 11.797 9.557 21.333 21.376 21.333h213.739c11.819 0 21.376-9.536 21.376-21.333v-981.333c0-11.797-9.557-21.333-21.376-21.333zM213.76 917.333h-170.987v-938.667h170.987v938.667z" />
<glyph unicode="&#xe941;" glyph-name="pencil" horiz-adv-x="1013" d="M978.802 756.185c-0.676-0.698-1.543-0.972-2.283-1.543-0.592-0.803-0.909-1.734-1.628-2.473l-64.711-65.387c0 0 0-0.021-0.021-0.021 0 0 0 0 0-0.021l-639.096-645.798c-0.021-0.021-0.042-0.021-0.042-0.042l-0.085-0.085c-1.987-2.008-4.313-3.573-6.849-4.63l-234.595-98.366c-2.6-1.099-5.37-1.628-8.076-1.628-5.497 0-10.887 2.177-14.925 6.258-6.046 6.088-7.864 15.263-4.587 23.233l97.246 237.005c0.021 0 0.021 0.021 0.021 0.042l0.042 0.106c0.507 1.205 1.416 2.051 2.093 3.129 0.803 1.268 1.374 2.664 2.495 3.805l0.106 0.106c0 0 0 0 0 0l639.096 645.861c0 0 0 0 0 0s0 0 0 0l64.711 65.408c0.698 0.719 1.607 1.015 2.368 1.586 0.571 0.782 0.867 1.691 1.564 2.389 46.086 46.572 121.071 46.572 167.157 0 22.324-22.557 34.628-52.555 34.607-84.477 0-31.922-12.283-61.92-34.607-84.456zM60.44-3.010l158.321 66.381-92.637 93.652-65.683-160.033zM256.011 86.055l609.394 615.799-107.478 108.641-609.352-615.821 107.436-108.62zM948.951 894.951c-29.639 29.935-77.818 29.935-107.457 0-0.698-0.698-1.607-0.994-2.368-1.586-0.571-0.761-0.867-1.67-1.564-2.368l-49.786-50.335 107.478-108.641 49.786 50.314c0.676 0.676 1.543 0.972 2.283 1.543 0.613 0.803 0.909 1.734 1.628 2.473 14.354 14.481 22.24 33.761 22.24 54.289s-7.885 39.807-22.24 54.31z" />
<glyph unicode="&#xe942;" glyph-name="pie-chart" d="M554.667-64c-258.795 0-469.333 210.539-469.333 469.333 0 11.776 9.557 21.333 21.333 21.333s21.333-9.557 21.333-21.333c0-235.264 191.403-426.667 426.667-426.667s426.667 191.403 426.667 426.667c0 235.264-191.403 426.667-426.667 426.667-11.776 0-21.333 9.557-21.333 21.333s9.557 21.333 21.333 21.333c258.795 0 469.333-210.539 469.333-469.333s-210.539-469.333-469.333-469.333zM468.907 512.427c0-11.776-9.536-21.333-21.312-21.333h-423.232c-0.981-0.128-2.005-0.213-3.029-0.213-11.776 0-21.333 9.344-21.333 21.12v0.469c0.235 246.528 201.024 447.296 447.573 447.531 0 0 0 0 0 0h0.021c0.021 0 0.107 0 0.192 0h0.213c11.776 0 21.333-9.557 21.333-21.312 0-1.451-0.149-2.88-0.427-4.245v-422.016zM426.24 916.757c-206.101-10.965-372.011-176.875-382.997-382.997h382.997v382.997z" />
<glyph unicode="&#xe943;" glyph-name="play" horiz-adv-x="896" d="M43.925-64c-25.856 0-43.925 20.651-43.925 50.176v924.309c0 29.163 17.664 49.515 42.965 49.515 9.536 0 19.264-2.923 28.928-8.704l797.419-477.376c17.067-10.283 26.688-25.557 26.475-42.027-0.256-16.427-10.368-31.445-27.712-41.195l-796.16-446.741c-9.323-5.269-18.773-7.957-27.989-7.957zM43.371 917.312c0.021-0.555-0.725-2.688-0.725-6.827v-924.309c0-4.224 0.832-6.592 1.344-7.509 0.704 0.021 3.051 0.256 7.019 2.475l796.203 446.784c4.245 2.368 5.76 4.523 5.973 5.077-0.363-0.405-1.728 1.856-5.803 4.309l-797.397 477.355c-3.499 2.112-5.696 2.56-6.613 2.645z" />
<glyph unicode="&#xe944;" glyph-name="question" d="M512-64c-282.304 0-512 229.696-512 512s229.696 512 512 512c282.304 0 512-229.696 512-512s-229.696-512-512-512zM512 917.333c-258.795 0-469.333-210.539-469.333-469.333s210.539-469.333 469.333-469.333c258.795 0 469.333 210.539 469.333 469.333s-210.539 469.333-469.333 469.333zM600.576 447.573c-71.403-57.835-67.52-123.093-67.307-125.845 0.853-11.691-7.893-21.952-19.563-22.912-0.576-0.043-1.173-0.064-1.749-0.064-10.944 0-20.224 8.299-21.205 19.371-0.32 3.627-6.848 89.856 82.965 162.581 32.384 26.24 44.992 51.691 44.992 90.752 0 61.312-47.872 111.211-106.709 111.211-59.797 0-106.624-46.869-106.624-106.709 0-11.797-9.557-21.333-21.333-21.333s-21.333 9.536-21.333 21.333c0 83.776 65.579 149.376 149.291 149.376 82.368 0 149.376-69.013 149.376-153.877 0-52.309-18.176-89.344-60.8-123.883zM512 234.667c23.531 0 42.667-19.157 42.667-42.667s-19.136-42.667-42.667-42.667c-23.531 0-42.667 19.157-42.667 42.667s19.136 42.667 42.667 42.667z" />
<glyph unicode="&#xe945;" glyph-name="rewind" horiz-adv-x="1365" d="M1317.262-64c-11.036 0-22.101 3.641-32.91 10.78l-459.349 274.916v-229.916c0-11.207 0-18.802-1.252-25.714-4.068-22.187-20.651-30.066-33.621-30.066v0c-11.264 0-21.020 5.433-29.070 10.752l-732.644 468.821c-18.29 12.089-28.416 29.639-28.132 48.469 0.228 18.745 10.837 35.954 29.042 47.246l732.103 439.154c7.538 4.636 17.010 9.557 27.989 9.557 13.113 0 29.895-7.908 34.19-30.236 1.394-7.253 1.394-15.303 1.394-25.401v-230.514l459.691 276.565c10.268 6.343 20.964 9.586 31.573 9.586 23.637 0 49.067-17.607 49.067-56.32v-911.9c0-38.315-24.917-55.78-48.071-55.78zM796.558 300.316c5.035 0 10.098-1.365 14.592-4.039l497.323-297.671v899.726l-497.266-299.15c-8.761-5.319-19.769-5.461-28.644-0.37-8.932 5.006-14.45 14.478-14.45 24.747v264.562l-708.466-424.988 708.466-453.348v262.087c0 10.24 5.49 19.684 14.421 24.747 4.352 2.475 9.188 3.698 14.023 3.698z" />
<glyph unicode="&#xe946;" glyph-name="right" d="M512-64c-282.304 0-512 229.696-512 512s229.696 512 512 512c282.304 0 512-229.696 512-512s-229.696-512-512-512zM512 917.333c-258.795 0-469.333-210.539-469.333-469.333s210.539-469.333 469.333-469.333c258.795 0 469.333 210.539 469.333 469.333s-210.539 469.333-469.333 469.333zM766.357 439.851c-1.088-2.624-2.645-4.971-4.629-6.955l-127.979-127.979c-4.16-4.16-9.621-6.251-15.083-6.251s-10.923 2.091-15.083 6.251c-8.341 8.341-8.341 21.824 0 30.165l91.584 91.584h-417.835c-11.776 0-21.333 9.557-21.333 21.333s9.557 21.333 21.333 21.333h417.835l-91.584 91.584c-8.341 8.341-8.341 21.824 0 30.165s21.824 8.341 30.165 0l127.979-127.979c1.984-1.984 3.541-4.331 4.629-6.955 2.155-5.205 2.155-11.093 0-16.299z" />
<glyph unicode="&#xe947;" glyph-name="rocket" horiz-adv-x="1016" d="M936.064 490.731c-137.92-136.939-248.789-194.368-364.821-252.224v-150.315c0-4.949-1.707-9.771-4.843-13.568l-107.264-130.837c-4.032-4.949-10.048-7.744-16.299-7.744-1.28 0-2.581 0.128-3.883 0.363-7.573 1.429-13.781 6.869-16.192 14.229l-63.36 191.488-155.2 156.395-190.016 63.851c-7.296 2.453-12.693 8.704-14.123 16.32-1.408 7.637 1.408 15.424 7.339 20.373l129.813 108.053c3.776 3.157 8.555 4.885 13.483 4.885h149.141c57.408 116.949 114.432 228.693 250.304 367.659 64.917 66.411 208.576 80.341 317.675 80.341 69.333 0 121.301-5.504 123.477-5.739 9.92-1.045 17.749-8.939 18.795-18.944 1.451-13.717 34.219-337.067-74.027-444.587zM969.621 913.365c-20.587 1.643-57.877 3.968-101.803 3.968-142.784 0-244.885-24.021-287.531-67.648-135.68-138.752-190.4-250.347-248.32-368.469-3.584-7.275-10.901-11.883-18.965-11.883h-154.688l-94.507-78.656 158.507-53.269c3.136-1.045 5.973-2.816 8.277-5.163l162.283-163.52c2.304-2.347 4.075-5.205 5.099-8.341l52.864-159.765 78.080 95.253v155.883c0 8.128 4.565 15.531 11.776 19.136 117.227 58.347 227.925 113.493 365.632 250.219 73.237 72.725 71.467 293.184 63.296 392.256zM698.261 512c-70.037 0-127.019 57.408-127.019 128 0 70.571 56.981 127.979 127.019 127.979s127.019-57.408 127.019-127.979c0-70.592-56.981-128-127.019-128zM698.261 725.312c-46.699 0-84.672-38.251-84.672-85.312s37.973-85.333 84.672-85.333c46.699 0 84.672 38.272 84.672 85.333s-37.973 85.312-84.672 85.312zM181.824 212.651c11.285 2.987 22.869-3.797 25.835-15.211 2.987-11.371-3.776-23.040-15.083-26.027-21.653-5.781-84.032-26.859-111.851-54.869-20.224-20.395-32.469-87.808-37.077-137.643 54.699 1.493 124.8 10.709 143.936 29.952 27.029 27.264 41.792 95.275 45.184 119.168 1.664 11.605 12.373 19.691 23.957 18.069 11.563-1.664 19.605-12.459 17.963-24.107-1.451-10.219-15.317-101.099-57.173-143.296-39.104-39.381-152.427-42.688-189.461-42.688-3.029 0-5.547 0.021-7.467 0.043-5.739 0.085-11.221 2.517-15.147 6.72-3.925 4.224-5.995 9.899-5.717 15.701 0.747 14.72 8.469 145.28 51.072 188.245 41.664 41.963 127.424 64.981 131.029 65.941z" />
<glyph unicode="&#xe948;" glyph-name="share1" d="M874.645 661.333c-50.667 0-95.381 25.493-122.389 64.213l-461.739-231.083c4.864-14.699 8.149-30.144 8.149-46.464 0-16.427-3.307-31.936-8.213-46.72l461.739-230.912c26.987 38.763 71.744 64.299 122.453 64.299 82.347 0 149.355-66.987 149.355-149.333s-67.008-149.333-149.355-149.333c-82.325 0-149.312 66.987-149.312 149.333 0 16.384 3.307 31.893 8.192 46.656l-461.76 230.912c-27.008-38.72-71.723-64.235-122.411-64.235-82.347 0-149.355 66.987-149.355 149.333s67.008 149.333 149.355 149.333c50.795 0 95.595-25.6 122.581-64.448l461.632 231.019c-4.928 14.784-8.235 30.336-8.235 46.763 0 82.347 66.987 149.333 149.312 149.333 82.347 0 149.355-66.987 149.355-149.333s-67.008-149.333-149.355-149.333zM874.645-21.333c58.816 0 106.688 47.851 106.688 106.667s-47.872 106.667-106.688 106.667c-58.795 0-106.645-47.851-106.645-106.667s47.851-106.667 106.645-106.667zM149.355 554.667c-58.816 0-106.688-47.851-106.688-106.667s47.872-106.667 106.688-106.667c58.795 0 106.645 47.851 106.645 106.667s-47.851 106.667-106.645 106.667zM874.645 917.333c-58.795 0-106.645-47.851-106.645-106.667s47.851-106.667 106.645-106.667c58.816 0 106.688 47.851 106.688 106.667s-47.872 106.667-106.688 106.667z" />
<glyph unicode="&#xe949;" glyph-name="share2" horiz-adv-x="1071" d="M1064.174 699.483l-223.065-222.618c-4.35-4.35-10.060-6.513-15.771-6.513s-11.421 2.164-15.771 6.513c-8.722 8.7-8.722 22.775 0 31.474l186.46 186.080h-304.528c-214.030 0-379.21-175.284-379.21-388.868 0-12.291-9.971-22.262-22.306-22.262s-22.306 9.971-22.306 22.262c0 238.144 194.133 431.875 432.745 431.875h294.178l-185.032 184.608c-8.722 8.7-8.722 22.797 0 31.474 8.722 8.7 22.82 8.7 31.541 0l223.065-222.551c4.194-4.171 6.536-9.837 6.536-15.748s-2.342-11.555-6.536-15.726zM289.984 694.419h-245.371v-713.873l914.565 0.067v423.823c0 12.313 8.499 21.347 20.834 21.347 12.313 0 22.306-9.971 22.306-22.262v-422.975c0-24.537-20.031-44.524-44.613-44.524h-913.092c-24.604 0-44.613 19.987-44.613 44.524v712.357c0 24.559 20.009 44.524 44.613 44.524h251.327c12.313 0 22.306-9.949 22.306-22.262 0-12.291-15.927-20.745-28.262-20.745z" />
<glyph unicode="&#xe94a;" glyph-name="shuffle" d="M1015.701 753.301l-127.659-127.744c-4.16-4.16-9.6-6.229-15.061-6.229-5.44 0-10.88 2.069-15.040 6.229-8.32 8.32-8.32 21.781 0 30.101l92.949 93.013h-140.224c-29.077 0-63.68-16.043-79.765-40.213l-361.557-542.485c-24.064-36.053-64.256-57.557-107.541-57.557h-240.192c-11.755 0-21.291 9.515-21.291 21.291 0 11.755 9.536 21.291 21.291 21.291h240.192c29.035 0 56 14.421 72.107 38.592l176.085 264.192-180.203 255.659c-16.299 23.616-45.312 39.232-73.792 39.232h-234.667c-11.755 0-21.419 7.915-21.419 19.669 0 11.776 9.515 21.291 21.269 21.291h237.163c42.453 0 82.219-20.864 106.347-55.829l170.624-242.048 160.171 240.32c23.979 36.032 64.171 57.557 107.541 57.557h146.24l-91.371 91.392c-8.32 8.32-8.32 21.781 0 30.101s21.781 8.32 30.101 0l127.659-127.701c1.984-1.963 3.541-4.331 4.629-6.955 1.045-2.539 1.579-5.248 1.6-7.957 0-0.064 0.043-0.107 0.043-0.171 0-6.293-2.283-11.349-6.080-14.805-0.064-0.085-0.085-0.171-0.149-0.235zM630.635 341.013l100.309-151.488c16.043-24.107 43.008-38.528 72.085-38.528h146.24l-91.371 91.371c-8.32 8.32-8.32 21.803 0 30.101 8.32 8.32 21.781 8.32 30.101 0l127.659-127.68c1.984-1.984 3.541-4.352 4.629-6.955 1.067-2.56 1.6-5.291 1.621-8 0-0.043 0.021-0.085 0.021-0.128 0-0.064-0.043-0.107-0.043-0.171-0.021-2.709-0.533-5.419-1.6-7.957-1.088-2.624-2.645-4.992-4.629-6.955l-127.616-127.701c-4.16-4.16-9.6-6.251-15.061-6.251-5.44 0-10.88 2.091-15.040 6.251-8.32 8.32-8.32 21.781 0 30.101l91.328 91.392h-146.24c-43.371 0-83.563 21.504-107.541 57.579l-100.352 151.531c-6.485 9.792-3.797 22.997 6.016 29.504 9.771 6.507 22.976 3.819 29.483-6.016z" />
<glyph unicode="&#xe94b;" glyph-name="start" d="M902.293-63.787c-7.915 0-15.915 2.453-23.723 7.317l-750.379 472v-458.197c0-11.797-9.557-21.333-21.333-21.333s-21.312 9.536-21.312 21.333v981.141c0 11.776 9.536 21.312 21.312 21.312s21.333-9.536 21.333-21.312v-427.435l750.4 442.261c7.616 4.459 15.317 6.699 22.955 6.699 18.453 0 37.12-14.507 37.12-42.261v-939.712c0-28.736-18.859-41.813-36.373-41.813zM896.021 914.069l-764.224-450.411 764.224-480.704v931.115z" />
<glyph unicode="&#xe94c;" glyph-name="tag" d="M994.645 472.725l-507.136-520.747c-10.389-10.368-23.979-15.979-38.443-15.979-14.421 0-28.011 5.611-38.187 15.765l-395.093 395.157c-10.176 10.197-15.787 23.744-15.787 38.208 0 14.485 5.611 28.032 15.787 38.208l521.152 507.499c16.555 16.533 47.040 29.163 70.72 29.163h362.304c29.781 0 54.037-24.235 54.037-54.037v-362.325c0-23.659-12.629-54.123-29.355-70.912zM981.333 905.963c0 6.165-5.205 11.371-11.371 11.371h-362.304c-12.267 0-32.085-8.192-40.747-16.875l-521.152-507.477c-2.667-2.645-3.093-6.059-3.093-7.851 0-1.771 0.427-5.184 3.285-8.021l395.072-395.157c2.859-2.859 6.272-3.285 8.043-3.285 1.792 0 5.205 0.427 8.085 3.285l507.093 520.747c8.875 8.875 17.088 28.672 17.088 40.939v362.325zM821.355 661.355c-52.928 0-96 43.051-96 96 0 52.928 43.072 96 96 96 52.949 0 96-43.072 96-96 0-52.949-43.051-96-96-96zM821.355 810.688c-29.419 0-53.333-23.936-53.333-53.333 0-29.419 23.915-53.333 53.333-53.333s53.333 23.915 53.333 53.333c0 29.397-23.915 53.333-53.333 53.333z" />
<glyph unicode="&#xe94d;" glyph-name="trash" d="M896 746.667h-45.035l-91.285-770.645c-2.645-22.443-22.4-40.021-45.013-40.021h-405.333c-22.613 0-42.368 17.579-45.013 40.021l-91.285 770.645h-45.035c-11.797 0-21.333 9.557-21.333 21.333s9.536 21.333 21.333 21.333h234.667v106.667c0 35.285 28.715 64 64 64h170.667c35.285 0 64-28.715 64-64v-106.667h234.667c11.797 0 21.333-9.557 21.333-21.333s-9.536-21.333-21.333-21.333zM618.667 896c0 11.755-9.557 21.333-21.333 21.333h-170.667c-11.776 0-21.333-9.579-21.333-21.333v-106.667h213.333v106.667zM216.021 746.667l90.667-765.632c0.107-0.917 1.728-2.368 2.645-2.368h405.333c0.917 0 2.539 1.451 2.645 2.347l90.667 765.653h-591.957z" />
<glyph unicode="&#xe94e;" glyph-name="umbrella" d="M1024 485.056c0-27.563-23.339-58.389-54.571-58.389h-436.096v-337.28c0-84.565-68.672-153.387-153.088-153.387-82.987 0-145.579 64.192-145.579 149.333 0 11.776 9.536 21.333 21.333 21.333s21.333-9.557 21.333-21.333c0-61.803 43.285-106.667 102.912-106.667 60.885 0 110.421 49.685 110.421 110.72v337.28h-436.096c-29.077 0-54.571 26.795-54.571 57.344 0 239.659 243.371 367.872 490.667 374.869v79.787c0 11.776 9.536 21.333 21.333 21.333s21.333-9.557 21.333-21.333v-79.787c247.296-6.976 490.667-134.827 490.667-373.824zM512 816.896c-233.237 0-469.333-114.347-469.333-332.885 0-6.443 6.656-14.677 11.904-14.677h914.859c4.693 0 11.904 8.427 11.904 15.723 0 217.856-236.096 331.84-469.333 331.84z" />
<glyph unicode="&#xe94f;" glyph-name="wrench" horiz-adv-x="1023" d="M936.105 450.274c-57.666-57.75-133.566-87.895-210.63-87.895-42.223 0-84.679 9.625-124.83 28.156l-359.258-412.016c-0.148-0.169-0.381-0.233-0.55-0.402-0.169-0.212-0.233-0.465-0.423-0.656-27.458-27.479-63.547-41.208-99.614-41.208s-72.156 13.729-99.614 41.208c-26.612 26.591-41.25 61.981-41.25 99.656 0 37.633 14.66 73.023 41.25 99.635 0.169 0.169 0.423 0.233 0.613 0.402 0.169 0.148 0.233 0.381 0.423 0.55l411.106 360.21c-51.637 113.153-28.367 245.682 60.606 334.677 70.422 70.4 161.87 99.847 257.486 82.797 7.721-1.375 14.089-6.896 16.521-14.342 2.454-7.467 0.592-15.675-4.823-21.366l-117.785-123.624 33.614-100.883c9.371-28.135 31.752-50.516 59.845-59.866l100.481-33.487 123.581 123.645c5.627 5.627 13.898 7.658 21.471 5.267 7.573-2.369 13.2-8.779 14.596-16.606 17.198-96.229-13.75-194.87-82.818-263.853zM880.111 562.327c-5.733-5.712-14.152-7.742-21.831-5.162l-112.962 37.675c-40.764 13.56-73.235 46.031-86.837 86.837l-37.654 113.068c-2.496 7.489-0.635 15.739 4.802 21.45l96.377 101.179c-0.91 0.021-1.819 0.021-2.75 0.021-65.027 0-126.014-25.829-175.155-74.97-79.729-79.75-98.112-200.307-45.735-300.027 0.275-0.529 0.254-1.1 0.487-1.65 0.592-1.375 0.952-2.729 1.227-4.167 0.254-1.333 0.487-2.581 0.487-3.913 0.021-1.375-0.19-2.665-0.444-4.019s-0.529-2.623-1.015-3.892c-0.487-1.248-1.163-2.348-1.883-3.49-0.783-1.227-1.587-2.369-2.623-3.427-0.423-0.444-0.613-0.994-1.058-1.396l-422.36-370.046c-18.425-18.531-28.6-43.133-28.6-69.279 0-26.273 10.217-50.96 28.769-69.491 38.225-38.225 100.376-38.268 138.685-0.169l368.883 423.058c0.423 0.487 0.994 0.677 1.438 1.1 1.079 1.058 2.221 1.883 3.448 2.665 1.142 0.698 2.221 1.354 3.427 1.819 1.333 0.529 2.644 0.825 4.040 1.079 1.29 0.233 2.538 0.402 3.85 0.402 1.375 0 2.687-0.233 4.062-0.508 1.396-0.275 2.729-0.635 4.062-1.206 0.592-0.254 1.206-0.233 1.756-0.529 99.952-53.202 220.911-35.052 300.957 45.121 48.823 48.76 75.414 114.803 74.991 182.749l-100.841-100.883z" />
<glyph unicode="&#xe950;" glyph-name="ban" horiz-adv-x="896" d="M448-64c-247.019 0-448 195.925-448 436.736 0 189.803 126.037 356.821 313.621 415.616 11.285 3.563 23.211-2.731 26.731-13.973s-2.731-23.211-13.973-26.731c-167.040-52.373-283.712-206.528-283.712-374.912 0-217.301 181.824-394.069 405.333-394.069s405.333 176.768 405.333 394.069c0 171.072-114.027 321.728-283.712 374.912-11.243 3.52-17.493 15.488-13.973 26.731 3.499 11.243 15.424 17.536 26.731 13.973 187.584-58.773 313.621-225.792 313.621-415.616 0-240.811-200.981-436.736-448-436.736zM448 576c-11.797 0-21.333 9.557-21.333 21.333v341.333c0 11.776 9.536 21.333 21.333 21.333s21.333-9.557 21.333-21.333v-341.333c0-11.776-9.536-21.333-21.333-21.333z" />
<glyph unicode="&#xe951;" glyph-name="bubble" d="M512 128.491c-29.909 0-81.28-0.363-94.592-0.469-69.973-118.4-217.856-127.659-224.32-128-0.363-0.021-0.725-0.021-1.088-0.021-7.808 0-15.019 4.267-18.752 11.179-3.904 7.232-3.328 16.085 1.515 22.741 0.576 0.768 54.293 75.776 59.093 165.739-150.891 79.467-233.856 190.059-233.856 312.597 0 211.605 229.696 383.744 512 383.744s512-172.139 512-383.744c0-211.605-229.696-383.765-512-383.765zM512 853.333c-258.795 0-469.333-153.003-469.333-341.077 0-146.88 139.456-239.019 222.592-280.853 1.003-0.512 1.685-1.365 2.56-2.005 1.195-0.853 2.389-1.579 3.371-2.624 0.981-1.067 1.621-2.283 2.347-3.499 0.683-1.109 1.451-2.112 1.941-3.349 0.576-1.515 0.725-3.115 0.939-4.736 0.149-0.981 0.576-1.835 0.576-2.859 0-0.299-0.021-0.597-0.021-0.896-0.021-0.085-0.021-0.171-0.021-0.256-0.277-65.643-23.659-124.16-42.923-161.216 45.845 11.307 116.544 39.595 152.32 109.291 3.499 6.805 10.197 10.539 17.301 11.136 0.704 0.085 1.365 0.427 2.091 0.448l8.555-0.171c0.107 0 63.211 0.491 97.707 0.491 258.795 0 469.333 153.003 469.333 341.099 0 188.075-210.539 341.077-469.333 341.077z" />
<glyph unicode="&#xe952;" glyph-name="check" d="M512-64c-282.304 0-512 229.696-512 512s229.696 512 512 512c282.304 0 512-229.696 512-512s-229.696-512-512-512zM512 917.333c-258.795 0-469.333-210.539-469.333-469.333s210.539-469.333 469.333-469.333c258.795 0 469.333 210.539 469.333 469.333s-210.539 469.333-469.333 469.333zM466.368 262.805c-3.925-4.224-9.387-6.677-15.147-6.805-0.149 0-0.32 0-0.469 0-5.611 0-10.987 2.197-14.976 6.144l-194.752 192c-8.384 8.277-8.491 21.781-0.213 30.165 8.256 8.384 21.781 8.491 30.165 0.213l179.115-176.576 302.293 325.248c8.021 8.619 21.525 9.109 30.144 1.088s9.109-21.504 1.088-30.144l-317.248-341.333z" />
</font>
</defs>
</svg>
